<svg width="24" height="24" viewBox="0 0 24 24" fill="none" xmlns="http://www.w3.org/2000/svg">
  <path fill-rule="evenodd" clip-rule="evenodd" d="M4 6C4 4.34315 5.34315 3 7 3C8.65685 3 10 4.34315 10 6V17C10 17.5523 9.55228 18 9 18C8.44772 18 8 17.5523 8 17V7C8 6.44772 7.55228 6 7 6C6.44772 6 6 6.44772 6 7V17C6 18.6569 7.34315 20 9 20C10.6569 20 12 18.6569 12 17V6C12 3.23858 9.76142 1 7 1C4.23858 1 2 3.23858 2 6V18H4V6Z" fill="currentColor"/>
  <rect x="11" y="5" width="11" height="11" rx="1" fill="currentColor"/>
  <circle cx="14" cy="9.5" r="1" fill="#1e1e1e"/>
  <circle cx="19" cy="9.5" r="1" fill="#1e1e1e"/>
  <path d="M14 13C15.5 12 17.5 12 19 13" stroke="#1e1e1e" stroke-width="1" stroke-linecap="round"/>
  <path d="M13 7.5L15 8.5" stroke="#1e1e1e" stroke-width="1" stroke-linecap="round"/>
  <path d="M20 7.5L18 8.5" stroke="#1e1e1e" stroke-width="1" stroke-linecap="round"/>
</svg>
