<svg width="128" height="128" viewBox="0 0 128 128" fill="none" xmlns="http://www.w3.org/2000/svg">
  <rect width="128" height="128" rx="16" fill="#0F0F0F"/>
  <rect x="8" y="8" width="112" height="112" rx="12" fill="#1A1A1A" stroke="#00F3FF" stroke-width="2"/>
  
  <!-- Grid pattern -->
  <g opacity="0.2">
    <line x1="32" y1="8" x2="32" y2="120" stroke="#00F3FF"/>
    <line x1="64" y1="8" x2="64" y2="120" stroke="#00F3FF"/>
    <line x1="96" y1="8" x2="96" y2="120" stroke="#00F3FF"/>
    <line x1="8" y1="32" x2="120" y2="32" stroke="#00F3FF"/>
    <line x1="8" y1="64" x2="120" y2="64" stroke="#00F3FF"/>
    <line x1="8" y1="96" x2="120" y2="96" stroke="#00F3FF"/>
  </g>
  
  <!-- D letter stylized -->
  <path d="M36 40 H56 Q80 40 80 64 Q80 88 56 88 H36 V40 Z" fill="none" stroke="#00F3FF" stroke-width="4"/>
  <path d="M36 40 H56 Q80 40 80 64 Q80 88 56 88 H36 V40 Z" fill="#00F3FF" fill-opacity="0.2"/>
  
  <!-- A letter stylized -->
  <path d="M76 88 L92 40 L108 88 M82 72 H102" fill="none" stroke="#FF00FF" stroke-width="4"/>
  
  <!-- Accent dots -->
  <circle cx="28" cy="28" r="4" fill="#FFEA00"/>
  <circle cx="100" cy="28" r="4" fill="#FFEA00"/>
  <circle cx="28" cy="100" r="4" fill="#39FF14"/>
  <circle cx="100" cy="100" r="4" fill="#39FF14"/>
</svg>
