<?xml version="1.0" standalone="no"?>
<!DOCTYPE svg PUBLIC "-//W3C//DTD SVG 20010904//EN"
 "http://www.w3.org/TR/2001/REC-SVG-20010904/DTD/svg10.dtd">
<svg version="1.0" xmlns="http://www.w3.org/2000/svg"
 width="1024.000000pt" height="1024.000000pt" viewBox="0 0 1024.000000 1024.000000"
 preserveAspectRatio="xMidYMid meet">

<g transform="translate(0.000000,1024.000000) scale(0.100000,-0.100000)"
fill="#000000" stroke="none">
<path d="M6520 9579 c-80 -4 -408 -19 -730 -33 -322 -14 -677 -30 -790 -36
-113 -5 -304 -14 -425 -20 -1102 -51 -2195 -138 -2501 -200 -201 -40 -384
-159 -448 -291 -63 -130 -69 -238 -37 -630 11 -129 25 -301 31 -384 11 -139
45 -560 105 -1275 14 -162 25 -309 25 -325 0 -29 -4 -32 -72 -57 -230 -86
-465 -308 -596 -563 -103 -202 -161 -466 -147 -670 17 -239 77 -525 160 -765
20 -58 83 -222 140 -365 109 -274 221 -535 717 -1665 127 -289 276 -589 348
-697 33 -50 108 -141 165 -201 199 -208 412 -324 676 -368 153 -25 447 -15
584 20 199 50 318 114 456 244 222 209 344 513 364 913 l7 126 191 7 c106 4
401 11 657 16 1054 23 1847 52 2180 81 397 35 598 181 656 479 18 89 16 251
-7 525 -5 66 -18 246 -29 400 -31 452 -40 567 -45 615 -3 25 -16 207 -30 405
-14 198 -34 473 -45 610 -11 138 -29 372 -40 520 -11 149 -24 329 -30 400 -13
163 -46 605 -65 875 -8 113 -24 315 -35 450 -11 135 -36 452 -55 705 -46 597
-51 630 -128 780 -57 110 -172 226 -278 277 -97 47 -219 83 -334 97 -100 12
-373 12 -595 0z m590 -303 c77 -14 227 -70 285 -106 50 -31 114 -106 140 -163
44 -96 58 -223 95 -837 32 -549 49 -787 64 -935 9 -77 22 -223 31 -325 22
-268 36 -421 41 -450 2 -14 10 -124 19 -245 39 -577 47 -685 65 -885 10 -118
22 -264 25 -325 7 -135 22 -341 35 -495 12 -139 16 -201 29 -435 6 -99 12
-216 15 -260 2 -44 9 -118 15 -165 13 -108 30 -344 38 -525 7 -163 -6 -226
-60 -297 -76 -99 -219 -133 -612 -142 -137 -4 -284 -8 -325 -11 -41 -3 -246
-7 -455 -10 -209 -3 -486 -8 -615 -11 -212 -5 -1068 -22 -1313 -27 l-98 -2 -8
35 c-92 384 -144 549 -316 1015 -37 99 -98 266 -136 370 -79 215 -169 433
-349 840 -34 77 -88 205 -122 285 -241 580 -357 770 -596 970 -254 213 -563
307 -882 270 -50 -5 -79 -5 -87 2 -8 6 -13 34 -13 67 0 69 -34 493 -55 686 -8
77 -24 246 -35 375 -11 129 -24 280 -30 335 -15 160 -39 433 -44 515 -3 41
-10 120 -16 175 -19 184 -17 275 7 321 62 118 191 164 503 179 69 3 229 12
355 20 127 8 327 19 445 25 233 11 395 22 645 45 155 14 351 31 465 40 30 2
123 7 205 10 83 3 269 13 415 20 470 26 651 33 950 40 398 9 644 17 755 25
146 11 432 3 525 -14z m-4540 -66 c0 -5 -4 -10 -10 -10 -5 0 -10 5 -10 10 0 6
5 10 10 10 6 0 10 -4 10 -10z m-245 -3000 c38 -6 74 -15 79 -20 6 -6 -4 -6
-25 0 -19 6 -54 10 -79 9 -25 -1 -52 1 -60 5 -8 3 -51 7 -95 9 l-80 3 95 2
c52 1 126 -3 165 -8z m-290 -10 c-4 -6 -10 -8 -14 -6 -10 7 -125 -24 -131 -34
-3 -5 -12 -5 -19 0 -11 6 -4 11 25 19 21 5 55 14 74 19 47 14 72 14 65 2z
m471 -32 c38 -13 118 -50 177 -83 144 -80 285 -211 384 -357 86 -128 89 -133
76 -125 -5 3 -43 56 -84 117 -142 212 -331 358 -579 446 -84 29 -64 31 26 2z
m-673 -24 c-4 -10 -8 -12 -12 -5 -14 22 -211 -86 -300 -164 -57 -51 -133 -146
-127 -162 3 -8 1 -11 -4 -8 -10 6 -34 -27 -66 -95 -10 -22 -22 -40 -27 -40 -9
0 23 64 69 136 44 69 151 183 217 232 56 41 212 120 239 121 12 1 15 -4 11
-15z m312 -104 c-11 -4 -56 -13 -100 -19 -44 -6 -91 -13 -105 -16 -14 -2 -5 2
20 10 46 16 123 30 175 31 24 1 26 0 10 -6z m68 3 c-7 -2 -21 -2 -30 0 -10 3
-4 5 12 5 17 0 24 -2 18 -5z m87 -13 c10 -6 2 -7 -25 -3 -49 7 -58 13 -19 13
16 0 36 -5 44 -10z m115 -20 c89 -25 137 -46 200 -87 101 -66 109 -73 155
-128 14 -16 -3 -4 -38 28 -35 32 -97 77 -138 101 -69 40 -95 50 -229 89 -27 8
-43 15 -35 16 8 1 47 -8 85 -19z m-556 -35 c-30 -12 -70 -29 -89 -39 l-35 -17
25 19 c13 11 41 26 62 33 21 7 43 18 49 25 6 7 17 10 26 7 10 -4 -3 -13 -38
-28z m429 19 c79 -10 38 -13 -67 -5 -113 9 -155 5 -144 -13 4 -6 -1 -4 -11 4
-18 14 -18 15 5 21 25 7 141 3 217 -7z m-278 -4 c0 -5 -8 -10 -17 -10 -15 0
-16 2 -3 10 19 12 20 12 20 0z m35 -10 c3 -6 -1 -7 -9 -4 -18 7 -21 14 -7 14
6 0 13 -4 16 -10z m-105 -15 c-19 -7 -42 -13 -50 -13 -8 0 1 6 20 13 19 7 42
13 50 13 8 0 -1 -6 -20 -13z m450 5 c11 -8 7 -9 -15 -4 -37 8 -45 14 -19 14
10 0 26 -5 34 -10z m400 -4 c0 -2 -7 -7 -16 -10 -8 -3 -12 -2 -9 4 6 10 25 14
25 6z m-287 -33 c16 -8 26 -17 23 -20 -3 -3 -12 -1 -20 6 -7 6 -33 18 -57 26
-38 12 -39 14 -9 8 19 -3 48 -12 63 -20z m-715 -32 c-36 -21 -84 -51 -105 -66
l-38 -27 40 36 c39 34 140 95 160 96 5 0 -20 -18 -57 -39z m-58 15 c0 -2 -16
-13 -35 -25 -19 -11 -35 -17 -35 -13 0 4 12 14 28 24 27 16 42 21 42 14z m844
-15 c4 -5 -3 -7 -14 -4 -23 6 -26 13 -6 13 8 0 17 -4 20 -9z m92 -56 c35 -25
66 -50 70 -57 4 -6 -24 10 -62 37 -80 56 -91 65 -80 65 5 0 37 -20 72 -45z
m-1094 -52 c-76 -74 -122 -137 -184 -248 -30 -55 -37 -57 -13 -4 18 40 47 89
92 151 18 25 29 49 25 53 -4 3 -2 5 3 3 9 -2 82 60 129 109 6 7 15 12 19 13 4
0 -28 -35 -71 -77z m1178 67 c0 -5 -5 -10 -11 -10 -5 0 -7 5 -4 10 3 6 8 10
11 10 2 0 4 -4 4 -10z m-405 -26 c113 -19 210 -51 241 -79 7 -5 37 -30 68 -54
31 -24 56 -47 56 -50 0 -3 10 -17 23 -31 13 -14 38 -47 57 -75 18 -27 36 -52
40 -55 15 -12 210 -433 210 -453 0 -14 -81 153 -122 251 -60 145 -131 259
-228 365 -92 101 -188 146 -364 173 -54 8 -126 13 -160 10 -45 -4 -52 -3 -26
3 56 13 109 12 205 -5z m-245 -2 c0 -5 -33 -16 -74 -26 -75 -18 -173 -68 -249
-129 -62 -50 -67 -52 -67 -25 0 17 3 19 9 9 7 -11 13 -10 32 9 58 55 186 126
274 151 74 21 75 21 75 11z m-474 -53 c-14 -11 -23 -25 -20 -31 4 -7 2 -8 -4
-4 -14 9 -61 -42 -109 -116 -44 -71 -55 -76 -16 -8 36 64 140 180 160 180 11
0 7 -6 -11 -21z m1295 -187 c48 -75 100 -179 134 -267 15 -38 36 -89 47 -113
10 -23 21 -57 24 -75 4 -27 -30 53 -95 223 -27 68 -90 184 -164 298 -37 57
-67 106 -67 109 0 8 71 -94 121 -175z m-93 73 c-3 -3 -9 2 -12 12 -6 14 -5 15
5 6 7 -7 10 -15 7 -18z m-1543 -35 c-4 -12 -9 -19 -12 -17 -3 3 -2 15 2 27 4
12 9 19 12 17 3 -3 2 -15 -2 -27z m226 -13 c-10 -9 -11 -8 -5 6 3 10 9 15 12
12 3 -3 0 -11 -7 -18z m1349 13 c0 -5 -4 -10 -10 -10 -5 0 -10 5 -10 10 0 6 5
10 10 10 6 0 10 -4 10 -10z m-1164 -26 c-30 -30 -78 -106 -107 -170 -45 -98
-60 -182 -60 -322 0 -68 -3 -122 -6 -119 -3 3 -5 63 -5 134 0 103 4 142 21
200 25 84 56 155 89 200 12 17 22 33 22 36 0 9 45 57 53 57 5 0 1 -7 -7 -16z
m599 -14 c91 -31 143 -67 233 -157 82 -83 95 -103 67 -103 -8 0 -14 3 -14 8 3
20 -2 32 -16 32 -8 0 -14 -5 -13 -11 2 -7 -9 -15 -24 -19 -35 -10 -51 8 -44
50 4 25 1 31 -12 28 -9 -2 -25 3 -34 12 -20 16 -24 40 -7 40 5 0 8 -4 5 -9 -9
-13 19 -32 38 -25 14 6 21 -5 17 -28 -1 -10 11 -10 27 0 19 13 -29 54 -54 46
-14 -4 -16 -3 -5 4 15 11 6 36 -10 27 -5 -4 -9 -1 -9 5 0 6 -4 9 -9 6 -5 -3
-11 3 -14 14 -3 11 -11 20 -18 20 -10 0 -10 -3 -1 -12 9 -9 9 -15 0 -26 -9
-10 -8 -16 3 -23 11 -7 9 -9 -9 -9 -13 0 -20 -4 -17 -10 3 -5 1 -10 -4 -10
-18 0 -13 25 9 48 21 23 14 32 -8 10 -7 -7 -12 -9 -12 -5 0 4 -9 3 -20 -3 -11
-6 -20 -7 -20 -2 0 5 15 15 33 23 32 14 39 30 16 38 -6 2 -9 -1 -5 -7 3 -5 -1
-13 -10 -16 -28 -11 -38 -6 -18 8 24 18 16 26 -52 47 -45 14 -54 15 -50 3 3
-7 1 -16 -4 -19 -4 -3 -11 1 -13 7 -4 9 -6 8 -6 -2 -1 -8 13 -21 29 -28 17 -8
30 -20 30 -28 0 -8 5 -14 11 -14 5 0 7 5 3 11 -4 7 -1 10 6 7 8 -2 16 -10 18
-18 4 -10 -6 -12 -41 -8 -50 6 -69 -11 -45 -40 11 -13 10 -15 -4 -9 -10 3 -20
2 -23 -3 -4 -6 4 -10 16 -10 18 0 19 -2 9 -15 -7 -9 -10 -18 -6 -22 9 -9 17 2
19 26 1 16 6 21 19 18 10 -3 18 -1 18 4 0 5 5 9 11 9 5 0 8 -4 5 -8 -2 -4 -1
-14 5 -22 5 -9 9 -10 9 -3 0 6 3 19 6 28 4 9 3 15 -2 14 -17 -3 -34 1 -34 9 0
4 11 8 25 8 14 1 25 -2 25 -8 0 -5 5 -6 10 -3 6 4 10 3 9 -2 -6 -26 14 -42 47
-38 18 2 36 0 39 -5 4 -6 1 -10 -4 -10 -6 0 -11 -9 -11 -21 0 -15 -4 -19 -16
-15 -11 4 -15 2 -11 -8 7 -18 -18 -42 -28 -26 -8 14 -35 13 -35 -2 0 -6 3 -8
7 -5 8 9 33 -12 33 -29 0 -25 -34 -34 -66 -18 -18 10 -24 11 -16 3 6 -7 12
-20 12 -29 0 -9 11 -22 24 -30 14 -7 22 -18 20 -25 -6 -14 13 -67 28 -76 13
-8 51 28 43 41 -4 6 1 10 10 10 9 0 14 -4 11 -9 -3 -5 6 -14 22 -20 15 -6 36
-17 47 -26 19 -13 21 -13 21 5 0 11 -7 20 -15 20 -11 0 -10 5 5 21 17 19 19
19 25 2 4 -10 3 -22 -2 -27 -5 -6 -4 -15 2 -23 12 -14 11 -14 -40 -19 -18 -1
-38 -8 -45 -14 -8 -9 -4 -10 19 -5 27 6 28 5 12 -8 -18 -15 -14 -47 6 -47 6 0
2 -7 -9 -16 -18 -15 -18 -15 5 -10 17 3 21 2 13 -6 -6 -6 -8 -17 -5 -25 5 -12
1 -14 -17 -8 -15 5 -20 4 -16 -4 7 -11 66 -12 66 -1 0 3 -5 11 -12 18 -9 9 -5
12 17 12 21 0 26 -3 16 -9 -7 -5 -11 -15 -9 -22 4 -9 10 -5 18 13 7 14 18 24
25 22 7 -3 20 7 29 21 17 25 14 45 -5 45 -6 0 -7 -4 -4 -10 12 -19 -12 -43
-48 -46 -25 -2 -37 2 -41 13 -5 12 -1 14 20 9 15 -4 23 -3 20 3 -3 5 0 12 6
15 7 3 -6 2 -29 -1 -47 -6 -52 -1 -26 25 12 12 18 13 21 4 2 -6 8 -12 13 -12
4 0 6 6 4 13 -6 15 31 64 41 55 4 -4 1 -14 -5 -22 -8 -10 -9 -16 -1 -21 6 -4
13 6 16 23 5 25 10 30 30 26 22 -4 24 -2 18 20 -5 21 -2 25 22 28 15 2 30 10
32 18 5 13 3 13 -11 2 -17 -14 -41 -7 -32 9 4 5 0 9 -7 10 -7 1 -3 4 10 7 l23
7 -25 34 c-18 24 -34 35 -56 36 -31 3 -37 -4 -19 -22 7 -7 -5 -10 -41 -8 -27
1 -53 5 -57 8 -3 4 -1 7 6 7 7 0 9 5 6 10 -3 6 -1 10 4 10 6 0 11 -4 11 -9 0
-5 9 -11 19 -14 22 -5 37 19 18 27 -13 5 -5 6 51 9 31 2 37 -3 78 -65 63 -96
193 -370 280 -593 41 -104 86 -216 99 -248 26 -62 26 -60 -19 -109 -18 -20
-20 -20 -32 -3 -15 20 -9 38 9 32 14 -5 47 10 47 22 0 4 -9 18 -20 31 -15 17
-20 19 -20 8 0 -9 7 -19 16 -22 12 -5 13 -8 2 -19 -7 -8 -20 -12 -28 -10 -9 3
-22 -3 -29 -11 -11 -13 -11 -16 -1 -16 10 0 10 -3 1 -14 -9 -11 -9 -15 1 -20
7 -3 3 -3 -9 0 -26 6 -32 -13 -8 -22 22 -9 18 -24 -7 -24 -34 0 -12 -12 28
-16 21 -2 42 -8 48 -14 13 -13 46 -13 46 0 0 6 7 10 15 10 18 0 19 -12 4 -27
-6 -6 -23 -8 -45 -3 -19 5 -34 4 -34 -1 0 -5 7 -9 15 -9 18 0 19 -11 3 -30 -7
-8 -1 -4 15 9 15 14 27 23 28 20 0 -2 2 -12 4 -22 2 -13 -1 -17 -11 -13 -8 3
-17 -1 -20 -9 -7 -18 -34 -20 -34 -3 0 6 -3 9 -6 6 -3 -4 -1 -15 5 -26 8 -16
7 -21 -4 -26 -8 -3 -15 -11 -15 -17 0 -8 5 -7 17 2 11 9 14 10 10 2 -5 -8 1
-15 18 -19 14 -3 25 -9 25 -13 0 -13 -18 -33 -26 -29 -5 1 -10 -5 -12 -15 -2
-10 5 -20 19 -25 15 -6 18 -11 11 -16 -7 -4 -12 -12 -12 -17 0 -6 5 -7 10 -4
6 3 10 -3 10 -13 0 -18 37 -38 49 -26 3 3 -4 7 -16 10 -14 4 -19 11 -16 25 6
22 23 26 23 4 0 -8 9 -23 21 -34 12 -11 15 -18 7 -18 -14 2 -18 -4 -18 -28 0
-8 9 -15 21 -15 11 0 18 4 14 9 -6 11 13 26 22 18 3 -3 1 -12 -3 -19 -5 -7 -9
-17 -10 -23 0 -5 -2 -15 -2 -21 -1 -7 -8 -14 -16 -17 -15 -6 -17 24 -2 34 4 4
-3 7 -17 7 -21 0 -24 -4 -17 -17 5 -9 12 -34 15 -55 4 -24 10 -35 14 -27 6 9
11 8 22 -5 8 -9 13 -19 12 -21 -2 -1 -3 -8 -3 -15 0 -9 3 -9 11 -1 8 8 8 17 0
30 -21 41 3 144 30 127 17 -10 19 19 3 31 -11 7 -16 17 -11 21 4 4 7 2 7 -4 0
-7 5 -12 11 -12 5 0 7 5 4 10 -4 6 -1 18 6 26 6 8 9 17 5 21 -3 3 -6 0 -6 -8
0 -12 -2 -12 -10 1 -6 9 -5 17 2 21 17 11 -20 82 -38 75 -17 -7 -18 6 -2 22 9
9 7 21 -7 53 -16 34 -20 38 -26 23 -7 -17 -8 -16 -8 4 -1 16 -7 22 -23 22 -19
0 -20 2 -8 10 12 8 12 10 1 10 -8 0 -11 3 -8 6 4 4 13 1 21 -5 8 -7 19 -10 25
-7 5 3 11 0 14 -7 3 -6 26 -63 51 -126 26 -63 45 -120 42 -127 -3 -8 -1 -14 4
-14 6 0 10 -5 10 -11 0 -5 -4 -7 -10 -4 -5 3 -10 1 -10 -4 0 -6 6 -11 13 -11
16 0 26 -20 73 -143 38 -98 38 -101 24 -92 -5 3 -10 2 -10 -4 0 -5 -3 -18 -7
-28 -6 -17 -6 -17 14 0 20 17 20 16 47 -55 20 -55 23 -74 14 -80 -10 -6 -9 -8
2 -8 18 0 82 -136 139 -295 22 -60 47 -127 56 -148 9 -21 33 -87 54 -146 l38
-108 -26 0 c-76 0 -472 -39 -446 -44 30 -6 381 -2 441 6 28 3 32 0 42 -33 13
-42 7 -56 -8 -21 l-11 24 7 -25 c3 -14 6 -33 5 -42 0 -10 3 -18 6 -18 3 0 12
8 20 18 13 16 14 16 11 -3 -4 -27 -41 -31 -364 -40 -148 -4 -276 -9 -286 -10
-9 -2 -79 -7 -155 -11 l-138 -7 -59 134 c-32 74 -99 222 -149 329 -209 453
-214 466 -276 750 -11 52 -25 154 -31 225 -6 72 -13 137 -15 145 -2 8 -6 56
-10 105 -3 50 -8 97 -10 105 -7 26 -55 470 -55 510 0 39 1 39 35 38 33 -1 34
-2 19 -19 -10 -11 -12 -19 -5 -24 6 -3 11 0 11 7 0 19 38 50 43 35 2 -6 6 -5
9 5 6 13 -2 15 -58 10 -35 -2 -64 -3 -64 -1 0 3 -5 43 -11 89 -6 47 -12 103
-14 125 -2 22 -8 69 -14 105 -5 36 -13 134 -17 219 l-7 154 21 -5 c12 -4 22
-2 22 3 0 5 7 9 16 9 9 0 13 -5 9 -12 -3 -7 0 -5 7 5 16 22 32 22 103 -3z
m595 -20 c11 -22 18 -40 15 -40 -2 0 -14 18 -25 40 -11 22 -18 40 -15 40 2 0
14 -18 25 -40z m-1631 -9 c-6 -18 -14 -30 -17 -27 -2 3 1 19 8 36 16 40 23 33
9 -9z m1047 -3 c3 -5 9 -6 14 -3 5 3 11 1 14 -4 4 -5 -8 -9 -28 -8 -19 1 -32
6 -29 11 3 4 -4 5 -16 1 -12 -4 -21 -2 -21 4 0 13 59 11 66 -1z m938 -129 c37
-72 78 -159 91 -193 27 -72 158 -386 208 -501 19 -44 55 -127 80 -185 25 -58
63 -147 85 -197 22 -51 37 -93 34 -93 -4 0 -18 27 -31 61 -17 45 -27 59 -38
54 -12 -4 -13 -2 -5 8 9 10 7 23 -7 53 -33 72 -109 248 -131 304 -12 30 -30
71 -40 90 -10 19 -25 55 -35 80 -9 25 -23 59 -31 75 -7 17 -25 61 -39 98 -14
38 -36 90 -50 117 -14 27 -25 55 -25 62 0 17 -132 282 -142 286 -4 2 -8 8 -8
13 0 25 23 -11 84 -132z m-1798 106 c0 -14 -7 -27 -14 -30 -7 -3 -10 -10 -6
-16 4 -7 3 -9 -4 -5 -6 3 -15 -6 -20 -21 -6 -16 -11 -22 -11 -15 -1 13 46 112
53 112 2 0 3 -11 2 -25z m1558 9 c3 -8 2 -12 -4 -9 -6 3 -10 10 -10 16 0 14 7
11 14 -7z m-124 -8 c0 -3 -4 -8 -10 -11 -5 -3 -10 -1 -10 4 0 6 5 11 10 11 6
0 10 -2 10 -4z m-1656 -103 c-11 -48 -20 -145 -24 -253 l-6 -175 -2 152 c-2
117 3 175 18 253 11 56 20 104 20 107 0 4 3 4 6 0 3 -3 -2 -41 -12 -84z m1743
-29 c-5 -5 -57 102 -57 114 1 4 15 -19 31 -52 17 -32 28 -60 26 -62z m-1615
49 c-19 -51 -33 -117 -42 -198 l-9 -80 4 80 c2 44 11 108 20 143 9 34 13 67 9
74 -4 7 -3 8 4 4 7 -4 12 -2 12 5 0 7 3 9 6 6 4 -4 2 -19 -4 -34z m908 17 c0
-14 -28 -19 -33 -6 -3 6 4 13 14 13 10 1 19 -2 19 -7z m-885 -121 c-9 -40 -13
-86 -9 -102 4 -20 3 -27 -5 -23 -8 5 -10 -18 -8 -78 2 -47 0 -83 -5 -80 -19
12 -4 222 23 322 18 68 21 42 4 -39z m1100 -4 c5 -26 5 -27 -6 -11 -9 15 -13
16 -20 5 -5 -9 -7 0 -6 23 2 29 5 35 14 25 6 -7 15 -25 18 -42z m-607 -2 c1
-27 12 -140 26 -253 34 -276 67 -612 61 -618 -12 -12 -113 253 -152 396 -43
159 -33 331 28 473 12 27 25 49 29 49 3 0 7 -21 8 -47z m1149 -50 c-5 -5 -47
83 -47 96 1 3 12 -16 26 -42 14 -27 23 -51 21 -54z m-604 37 c-3 -11 -9 -20
-14 -20 -11 0 -11 3 -3 24 9 23 23 20 17 -4z m-29 -32 c-5 -7 -1 -9 9 -5 10 3
17 2 17 -4 0 -18 -35 -5 -38 15 -3 11 0 16 7 11 6 -3 8 -11 5 -17z m900 -14
c3 -8 2 -12 -4 -9 -6 3 -10 10 -10 16 0 14 7 11 14 -7z m-250 -20 c3 -8 2 -12
-4 -9 -6 3 -10 10 -10 16 0 14 7 11 14 -7z m-652 -9 c9 4 18 2 21 -2 3 -5 -18
-8 -46 -7 -64 2 -71 4 -32 13 17 4 33 3 36 -1 3 -5 13 -6 21 -3z m58 5 c0 -5
-4 -10 -10 -10 -5 0 -10 5 -10 10 0 6 5 10 10 10 6 0 10 -4 10 -10z m41 -7
c13 -17 13 -17 -6 -3 -11 8 -22 16 -24 17 -2 2 0 3 6 3 6 0 17 -8 24 -17z
m145 4 c18 7 18 -14 0 -24 -8 -4 -15 -12 -17 -18 -5 -27 -13 -35 -38 -35 -15
0 -32 5 -39 12 -8 8 -15 8 -27 -2 -12 -10 -15 -10 -15 4 0 9 -7 16 -15 16 -8
0 -15 4 -15 10 0 6 9 6 23 1 17 -6 26 -3 40 12 9 11 17 15 17 8 0 -7 5 -9 10
-6 6 4 18 1 27 -7 14 -11 16 -10 11 9 -5 20 13 40 20 22 2 -4 10 -5 18 -2z
m-1596 -17 c0 -5 -4 -10 -10 -10 -5 0 -10 5 -10 10 0 6 5 10 10 10 6 0 10 -4
10 -10z m2073 -141 c2 -13 2 -18 0 -11 -3 6 -9 12 -14 12 -6 0 -8 4 -5 9 3 5
-5 34 -19 65 -14 31 -25 60 -24 64 1 12 58 -114 62 -139z m-709 84 c-25 -18
-39 -16 -23 4 12 15 12 16 -4 10 -11 -4 -16 -3 -12 4 4 5 15 7 26 4 15 -5 18
-2 13 12 -5 16 -4 16 7 -1 10 -16 9 -21 -7 -33z m43 33 c0 -8 -6 -12 -14 -9
-7 3 -13 9 -13 14 0 5 6 9 13 9 8 0 14 -6 14 -14z m42 -43 c0 -10 -3 -13 -5
-6 -3 7 -13 9 -22 6 -15 -4 -15 -3 -2 6 22 15 30 14 29 -6z m133 -15 c-7 -7
-12 -8 -12 -2 0 14 12 26 19 19 2 -3 -1 -11 -7 -17z m-1307 -25 c-5 -34 8
-228 21 -293 4 -24 4 -24 -6 -2 -23 53 -37 332 -17 332 5 0 6 -17 2 -37z
m1085 22 c-7 -8 -17 -15 -22 -15 -6 0 -5 7 2 15 7 8 17 15 22 15 6 0 5 -7 -2
-15z m-1013 -47 c-3 -8 -6 -5 -6 6 -1 11 2 17 5 13 3 -3 4 -12 1 -19z m1779
-63 c9 -27 12 -58 4 -48 -8 9 -30 86 -29 99 0 9 10 -12 25 -51z m-1798 -27
c-1 -33 8 -126 18 -183 3 -21 2 -26 -4 -15 -17 26 -36 230 -22 230 5 0 8 -15
8 -32z m-114 -14 c5 -14 4 -15 -9 -4 -17 14 -19 20 -6 20 5 0 12 -7 15 -16z
m1869 -126 c74 -176 104 -251 129 -321 11 -31 24 -55 29 -51 5 3 6 -1 4 -8 -8
-19 41 -145 171 -450 63 -147 114 -271 114 -275 -2 -26 -208 459 -305 715 -65
173 -103 267 -202 500 -8 19 -10 31 -5 28 5 -3 34 -65 65 -138z m-1899 50 c4
-40 25 -145 48 -233 22 -88 43 -170 45 -182 3 -13 10 -20 16 -16 6 4 8 0 4
-11 -4 -9 7 -56 24 -104 17 -48 37 -108 45 -133 8 -26 22 -64 31 -85 9 -22 17
-41 18 -44 0 -3 11 -31 23 -63 23 -60 28 -83 12 -56 -12 21 -88 226 -139 378
-49 144 -127 444 -136 522 -3 30 -8 64 -11 77 -2 12 0 22 4 22 5 0 12 -33 16
-72z m345 -72 c1 -6 -3 -6 -9 0 -5 5 -12 36 -15 69 l-5 60 14 -60 c8 -33 15
-64 15 -69z m526 114 c3 -5 1 -10 -4 -10 -6 0 -11 5 -11 10 0 6 2 10 4 10 3 0
8 -4 11 -10z m-810 -80 c-3 -5 -12 -10 -18 -10 -7 0 -6 4 3 10 19 12 23 12 15
0z m373 -295 c22 -60 44 -119 48 -130 5 -14 4 -17 -3 -10 -6 6 -25 51 -42 100
-18 50 -36 99 -42 110 -14 32 -49 149 -48 165 0 8 11 -16 23 -55 13 -38 41
-119 64 -180z m1687 175 c5 -16 4 -22 -3 -15 -5 6 -12 24 -16 40 -7 34 7 15
19 -25z m-1980 -63 c9 -42 32 -122 50 -177 19 -55 31 -100 27 -100 -10 0 -80
223 -96 303 -17 92 -3 71 19 -26z m32 41 c-3 -7 -5 -2 -5 12 0 14 2 19 5 13 2
-7 2 -19 0 -25z m2103 8 c0 -2 -7 -7 -16 -10 -8 -3 -12 -2 -9 4 6 10 25 14 25
6z m-42 -41 c-3 -3 -9 2 -12 12 -6 14 -5 15 5 6 7 -7 10 -15 7 -18z m-2036
-37 c-1 -4 3 -19 8 -33 5 -14 7 -25 5 -25 -8 0 -21 39 -29 80 -6 32 -5 33 6
10 6 -14 10 -28 10 -32z m1938 37 c0 -8 -2 -15 -4 -15 -2 0 -6 7 -10 15 -3 8
-1 15 4 15 6 0 10 -7 10 -15z m-13 -87 c-3 -8 -6 -5 -6 6 -1 11 2 17 5 13 3
-3 4 -12 1 -19z m-23 -7 c4 -5 -3 -7 -14 -4 -23 6 -26 13 -6 13 8 0 17 -4 20
-9z m94 -76 c0 -5 -6 4 -13 20 -8 17 -14 37 -14 45 0 8 7 -1 14 -20 7 -19 13
-39 13 -45z m-1954 -19 c15 -43 25 -80 23 -83 -4 -4 -30 63 -42 107 -4 14 -9
34 -12 45 -13 48 7 3 31 -69z m1916 63 c0 -6 -4 -7 -10 -4 -5 3 -10 11 -10 16
0 6 5 7 10 4 6 -3 10 -11 10 -16z m-16 -69 c-5 -5 -10 3 -11 18 -1 22 0 24 9
8 6 -10 6 -22 2 -26z m-29 10 c3 -6 -1 -7 -9 -4 -18 7 -21 14 -7 14 6 0 13 -4
16 -10z m132 -86 c-3 -3 1 -27 9 -52 17 -59 17 -77 0 -36 -23 51 -29 94 -15
94 7 0 10 -3 6 -6z m-1708 -107 c21 -53 35 -94 31 -92 -8 5 -62 131 -75 175
-15 51 6 10 44 -83z m1668 81 c-3 -8 -6 -5 -6 6 -1 11 2 17 5 13 3 -3 4 -12 1
-19z m-1914 -35 c-3 -7 0 -13 7 -13 6 0 8 -5 4 -11 -8 -14 -18 2 -28 46 -7 28
-6 29 7 10 8 -10 13 -25 10 -32z m-83 15 c0 -6 -6 -5 -15 2 -8 7 -15 14 -15
16 0 2 7 1 15 -2 8 -4 15 -11 15 -16z m2019 -50 c9 -39 9 -54 0 -62 -9 -8 -10
-8 -5 2 4 6 4 18 0 24 -9 14 -17 88 -10 88 2 0 9 -23 15 -52z m-1945 -48 c3
-14 -4 -4 -17 21 -14 29 -28 44 -36 41 -12 -4 -12 -2 0 11 12 13 16 12 30 -16
9 -18 19 -43 23 -57z m43 3 c9 -21 16 -41 15 -45 -1 -5 3 -8 9 -8 5 0 8 -4 5
-8 -3 -5 8 -40 23 -78 16 -38 44 -104 61 -147 23 -55 35 -75 41 -65 5 7 9 9 9
3 0 -17 -17 -38 -23 -28 -4 6 -133 322 -164 401 -3 6 -2 12 1 12 4 0 14 -17
23 -37z m1573 -43 c16 -41 30 -76 30 -78 0 -10 -25 6 -26 16 -1 7 -2 13 -3 15
-2 1 -4 13 -7 27 -2 14 -13 36 -23 50 -10 14 -16 31 -13 38 6 18 7 16 42 -68z
m-30 16 c0 -1 -7 -3 -15 -3 -8 0 -15 4 -15 9 0 5 -5 6 -12 2 -7 -4 -8 -3 -4 4
5 9 13 9 27 2 10 -6 19 -12 19 -14z m408 -111 c0 -11 -6 -2 -13 20 -7 22 -18
39 -25 37 -7 -1 -8 2 -3 10 4 7 7 22 5 33 -1 11 7 -2 17 -30 11 -27 19 -59 19
-70z m-1949 21 c17 -44 28 -82 26 -84 -2 -3 -9 8 -16 24 -41 108 -49 130 -49
138 0 17 8 1 39 -78z m1551 64 c0 -5 -7 -10 -15 -10 -8 0 -15 5 -15 10 0 6 7
10 15 10 8 0 15 -4 15 -10z m-40 -16 c0 -2 -7 -4 -15 -4 -8 0 -15 4 -15 10 0
5 7 7 15 4 8 -4 15 -8 15 -10z m770 -149 c33 -82 58 -150 56 -152 -2 -2 -16
27 -31 64 -15 37 -30 73 -35 78 -4 6 -11 25 -15 43 -3 17 -11 32 -16 32 -6 0
-8 3 -6 8 3 4 -3 25 -14 46 -21 44 -24 55 -9 40 5 -5 37 -77 70 -159z m-1900
-134 c50 -112 88 -206 85 -209 -2 -3 -8 4 -11 14 -4 10 -34 78 -67 149 -74
163 -137 313 -136 322 1 11 28 -47 129 -276z m1615 214 c4 -26 3 -35 -3 -25
-5 8 -12 33 -15 55 -4 25 -3 34 3 25 4 -8 11 -33 15 -55z m-80 15 c3 -5 1 -10
-4 -10 -6 0 -11 5 -11 10 0 6 2 10 4 10 3 0 8 -4 11 -10z m122 -12 c-3 -8 -6
-5 -6 6 -1 11 2 17 5 13 3 -3 4 -12 1 -19z m88 -28 c3 -5 1 -10 -4 -10 -6 0
-11 5 -11 10 0 6 2 10 4 10 3 0 8 -4 11 -10z m-162 -20 c3 -11 1 -18 -4 -14
-5 3 -9 12 -9 20 0 20 7 17 13 -6z m-434 -6 c4 3 8 -1 8 -8 0 -8 -6 -12 -14
-9 -7 3 -13 13 -12 22 0 10 2 11 6 3 2 -6 8 -10 12 -8z m46 -1 c-2 -10 -4 -25
-4 -32 -1 -12 -4 -12 -13 -3 -10 10 -10 15 2 22 10 7 11 10 3 10 -7 0 -13 5
-13 10 0 6 6 10 14 10 8 0 13 -8 11 -17z m47 -57 c-2 -4 -8 -3 -12 4 -6 9 -11
7 -19 -9 -14 -25 -27 -27 -47 -7 -9 9 -10 17 -4 21 6 3 13 -1 16 -9 3 -9 10
-16 14 -16 9 0 23 39 20 55 -1 6 7 1 18 -10 11 -11 17 -24 14 -29z m-1557 -17
c30 -58 46 -99 40 -99 -4 0 -15 22 -61 123 -23 47 -5 29 21 -24z m1925 8 c0
-16 -18 3 -23 25 -6 22 -5 22 8 4 8 -11 15 -24 15 -29z m50 -18 c5 -16 7 -29
4 -29 -5 0 -18 31 -28 70 -6 22 -5 22 4 7 7 -10 16 -32 20 -48z m-513 45 c-3
-3 -12 -4 -19 -1 -8 3 -5 6 6 6 11 1 17 -2 13 -5z m53 -76 c0 -12 -14 -10 -28
4 -18 18 -24 4 -7 -18 11 -15 17 -17 32 -8 10 7 17 19 15 28 -4 20 12 21 28 1
15 -18 10 -25 -17 -29 -29 -5 -22 -31 9 -31 16 -1 33 -6 38 -11 7 -7 4 -10
-12 -10 -16 1 -23 -4 -21 -17 1 -18 0 -18 -17 0 -9 10 -16 20 -14 22 6 7 -38
41 -47 35 -11 -6 -23 41 -15 55 8 12 56 -6 56 -21z m440 -12 c0 -6 -7 -1 -15
10 -8 10 -15 23 -15 28 0 6 7 1 15 -10 8 -10 15 -23 15 -28z m-370 24 c0 -5
-4 -10 -10 -10 -5 0 -10 5 -10 10 0 6 5 10 10 10 6 0 10 -4 10 -10z m-1365
-28 c-8 -8 -25 10 -19 20 4 6 9 5 15 -3 4 -7 6 -15 4 -17z m-267 -132 c4 -3 8
-16 9 -30 2 -26 -59 94 -71 140 -3 14 8 -4 25 -40 16 -35 33 -67 37 -70z
m1632 120 c-8 -5 -19 -10 -25 -10 -5 0 -3 5 5 10 8 5 20 10 25 10 6 0 3 -5 -5
-10z m-1340 -14 c0 -2 -7 -7 -16 -10 -8 -3 -12 -2 -9 4 6 10 25 14 25 6z
m1975 -6 c3 -5 1 -10 -4 -10 -6 0 -11 5 -11 10 0 6 2 10 4 10 3 0 8 -4 11 -10z
m-2195 -40 c0 -5 -2 -10 -4 -10 -3 0 -8 5 -11 10 -3 6 -1 10 4 10 6 0 11 -4
11 -10z m1550 0 c0 -5 -2 -10 -4 -10 -3 0 -8 5 -11 10 -3 6 -1 10 4 10 6 0 11
-4 11 -10z m724 -40 c5 -17 4 -20 -2 -10 -5 8 -13 26 -16 40 -5 17 -4 20 2 10
5 -8 13 -26 16 -40z m-2230 24 c3 -8 2 -12 -4 -9 -6 3 -10 10 -10 16 0 14 7
11 14 -7z m30 0 c3 -8 2 -12 -4 -9 -6 3 -10 10 -10 16 0 14 7 11 14 -7z m-114
-9 c-7 -8 -17 -15 -23 -15 -6 0 -2 7 9 15 25 19 30 19 14 0z m75 -15 c3 -6 -1
-7 -9 -4 -18 7 -21 14 -7 14 6 0 13 -4 16 -10z m1989 -36 c3 -8 2 -12 -4 -9
-6 3 -10 10 -10 16 0 14 7 11 14 -7z m-1909 -24 c3 -6 -1 -7 -9 -4 -18 7 -21
14 -7 14 6 0 13 -4 16 -10z m2211 -88 c13 -35 19 -60 14 -57 -6 3 -10 13 -10
21 0 8 -6 17 -14 20 -8 3 -12 12 -9 20 3 8 0 14 -6 14 -6 0 -8 7 -5 15 4 8 1
21 -5 29 -6 7 -8 16 -4 20 4 4 9 1 12 -6 2 -7 14 -41 27 -76z m-2153 63 c-3
-9 -8 -14 -10 -11 -3 3 -2 9 2 15 9 16 15 13 8 -4z m-194 -75 c0 -8 -9 3 -19
25 -24 53 -24 70 0 25 11 -19 19 -42 19 -50z m1551 60 c0 -5 -2 -10 -4 -10 -2
0 -12 -3 -22 -7 -16 -6 -17 -5 -4 10 17 19 30 22 30 7z m637 -53 c13 -28 49
-128 82 -222 32 -93 62 -179 66 -190 5 -13 5 -17 -2 -10 -6 6 -22 46 -37 90
-15 44 -31 88 -36 97 -6 10 -10 26 -10 35 0 16 -2 16 -11 3 -8 -12 -9 -11 -5
6 7 22 -29 134 -63 202 -12 23 -18 42 -14 42 5 0 18 -24 30 -53z m25 8 c9 -20
9 -20 -6 -1 -9 11 -16 27 -15 35 0 14 1 14 6 1 3 -8 10 -24 15 -35z m-242 11
c0 -8 7 -19 15 -26 8 -7 12 -16 9 -21 -2 -5 2 -22 11 -39 9 -17 15 -36 13 -42
-2 -6 -17 23 -33 63 -17 41 -32 78 -34 83 -2 5 1 6 8 2 6 -4 11 -13 11 -20z
m335 -16 c3 -6 -1 -7 -9 -4 -18 7 -21 14 -7 14 6 0 13 -4 16 -10z m-1857 -82
c17 -40 56 -134 88 -208 31 -74 62 -150 70 -167 8 -18 12 -33 10 -33 -7 0 -61
118 -92 195 -12 33 -43 109 -68 169 -25 60 -46 111 -46 113 0 14 12 -7 38 -69z
m-397 -53 c12 -27 37 -86 55 -130 18 -44 38 -81 44 -83 5 -2 8 -8 5 -13 -4 -5
4 -30 15 -56 12 -27 35 -84 51 -128 16 -44 34 -89 39 -100 6 -11 28 -63 49
-115 22 -53 44 -94 51 -92 6 1 8 -2 5 -8 -4 -6 1 -28 10 -48 10 -20 37 -79 62
-131 24 -51 42 -96 39 -99 -3 -2 -10 6 -15 19 -5 13 -37 82 -70 152 -63 133
-91 198 -196 457 -35 85 -80 193 -100 240 -42 97 -95 232 -94 240 0 5 15 -25
50 -105z m2236 -8 c26 -63 85 -278 78 -285 -2 -2 -9 16 -15 39 -33 130 -62
222 -86 275 -38 80 -39 82 -19 56 9 -13 28 -51 42 -85z m-2119 56 c-1 -5 4
-19 10 -33 47 -110 82 -205 79 -214 -2 -6 -9 6 -16 27 -8 22 -17 34 -23 31 -7
-4 -8 -2 -4 5 7 11 -20 95 -49 151 -8 15 -11 30 -8 34 9 8 13 8 11 -1z m43
-40 c11 -27 27 -61 34 -78 62 -137 100 -234 87 -220 -17 17 -155 345 -146 345
3 0 14 -21 25 -47z m2169 37 c0 -5 -2 -10 -4 -10 -3 0 -8 5 -11 10 -3 6 -1 10
4 10 6 0 11 -4 11 -10z m29 -90 c0 -8 -7 1 -14 20 -18 46 -17 64 0 25 8 -16
14 -37 14 -45z m-343 -39 c8 -31 21 -69 28 -86 42 -99 78 -187 96 -235 11 -30
26 -65 32 -77 6 -13 9 -25 6 -28 -3 -3 -11 9 -18 27 -7 18 -40 98 -73 178 -51
125 -71 177 -112 295 -6 20 -6 20 9 1 8 -11 23 -44 32 -75z m-1676 35 c0 -2
-9 -6 -20 -9 -11 -3 -18 -1 -14 4 5 9 34 13 34 5z m2058 -91 c11 -33 23 -69
27 -80 3 -11 -1 -7 -10 8 -9 16 -22 47 -29 70 -8 23 -17 51 -21 62 -5 14 -5
17 2 10 6 -5 19 -37 31 -70z m-2133 47 c-3 -3 -11 0 -18 7 -9 10 -8 11 6 5 10
-3 15 -9 12 -12z m-110 -32 c-3 -5 -12 -10 -18 -10 -7 0 -6 4 3 10 19 12 23
12 15 0z m235 -4 c0 -3 -4 -8 -10 -11 -5 -3 -10 -1 -10 4 0 6 5 11 10 11 6 0
10 -2 10 -4z m-160 -114 c0 -15 -2 -15 -10 -2 -13 20 -13 33 0 25 6 -3 10 -14
10 -23z m1877 -34 c-3 -8 -6 -5 -6 6 -1 11 2 17 5 13 3 -3 4 -12 1 -19z
m-1818 -117 c23 -51 41 -99 41 -105 -1 -6 -7 3 -14 19 -7 17 -24 55 -38 85
-26 55 -49 118 -47 129 0 3 4 -3 9 -14 5 -11 27 -62 49 -114z m6151 119 c0 -5
-2 -10 -4 -10 -3 0 -8 5 -11 10 -3 6 -1 10 4 10 6 0 11 -4 11 -10z m-3980 -35
c0 -5 -5 -3 -10 5 -5 8 -10 20 -10 25 0 6 5 3 10 -5 5 -8 10 -19 10 -25z
m-2136 -28 c4 4 4 -1 0 -11 -6 -17 -8 -16 -20 5 -7 13 -13 29 -13 34 0 6 5 0
12 -13 7 -12 16 -19 21 -15z m1980 17 c3 -8 2 -12 -4 -9 -6 3 -10 10 -10 16 0
14 7 11 14 -7z m211 -138 c25 -70 45 -133 44 -139 0 -7 -11 17 -24 53 -13 36
-35 96 -49 135 -25 66 -32 94 -21 84 2 -3 25 -63 50 -133z m-170 114 c3 -5 -1
-10 -10 -10 -9 0 -13 5 -10 10 3 6 8 10 10 10 2 0 7 -4 10 -10z m-1736 -105
c0 -5 -8 6 -19 25 -11 19 -19 42 -19 50 0 16 37 -58 38 -75z m-268 49 c5 -15
8 -29 5 -31 -2 -2 -8 10 -14 26 -13 38 -5 41 9 5z m68 -169 c-1 -13 -57 107
-57 120 0 6 13 -17 28 -50 16 -33 29 -64 29 -70z m240 40 c11 -27 36 -93 56
-145 20 -52 50 -128 66 -169 16 -41 28 -78 27 -83 -2 -5 -25 46 -51 114 -27
68 -57 146 -69 175 -11 29 -19 55 -19 58 1 3 -10 27 -24 55 -14 27 -25 53 -25
57 0 16 19 -15 39 -62z m-49 31 c0 -3 -4 -8 -10 -11 -5 -3 -10 -1 -10 4 0 6 5
11 10 11 6 0 10 -2 10 -4z m-231 -81 c12 -27 16 -44 10 -38 -7 7 -21 34 -31
60 -22 59 -7 44 21 -22z m1870 -77 c23 -64 51 -148 62 -185 11 -37 24 -77 29
-88 10 -21 14 -57 10 -90 -1 -11 -6 5 -11 35 -8 43 -102 337 -144 445 -6 14
-5 17 3 10 5 -5 29 -63 51 -127z m-1809 61 c0 -16 131 -283 143 -290 5 -4 5
-9 0 -12 -5 -3 -43 62 -84 144 -87 176 -84 169 -70 169 6 0 11 -5 11 -11z
m2184 -242 c23 -145 39 -286 29 -259 -3 6 -8 10 -11 8 -4 -2 -8 33 -9 78 -2
44 -7 101 -12 126 -5 25 -13 68 -16 95 -4 28 -10 55 -13 60 -7 11 -7 11 -16
77 l-6 43 15 -38 c8 -21 25 -106 39 -190z m-231 168 c-3 -9 -8 -14 -10 -11 -3
3 -2 9 2 15 9 16 15 13 8 -4z m-1903 -135 c34 -69 57 -120 51 -115 -11 11
-121 230 -121 241 0 13 7 0 70 -126z m125 112 c-3 -3 -11 0 -18 7 -9 10 -8 11
6 5 10 -3 15 -9 12 -12z m75 -22 c0 -5 -5 -10 -11 -10 -5 0 -7 5 -4 10 3 6 8
10 11 10 2 0 4 -4 4 -10z m-56 -76 c3 -8 2 -12 -4 -9 -6 3 -10 10 -10 16 0 14
7 11 14 -7z m100 -10 c3 -8 2 -12 -4 -9 -6 3 -10 10 -10 16 0 14 7 11 14 -7z
m1740 -59 c4 -34 3 -43 -3 -30 -9 19 -15 93 -7 84 2 -2 6 -26 10 -54z m-37 23
c-3 -8 -6 -5 -6 6 -1 11 2 17 5 13 3 -3 4 -12 1 -19z m88 2 c3 -5 1 -10 -4
-10 -6 0 -11 5 -11 10 0 6 2 10 4 10 3 0 8 -4 11 -10z m-1845 -41 c0 -14 -16
-11 -29 5 -10 12 -8 13 8 9 12 -3 21 -9 21 -14z m1767 -21 c-3 -7 -5 -2 -5 12
0 14 2 19 5 13 2 -7 2 -19 0 -25z m-1707 12 c0 -5 -2 -10 -4 -10 -3 0 -8 5
-11 10 -3 6 -1 10 4 10 6 0 11 -4 11 -10z m-120 -14 c0 -3 -4 -8 -10 -11 -5
-3 -10 -1 -10 4 0 6 5 11 10 11 6 0 10 -2 10 -4z m123 -20 c10 -8 14 -17 9
-20 -6 -3 -13 1 -16 10 -4 10 -13 13 -28 9 -18 -5 -20 -4 -8 4 19 13 21 13 43
-3z m1722 -239 c-1 -137 -5 -237 -12 -262 -11 -37 -12 -36 -5 20 9 81 9 411
-1 455 -6 28 -5 32 5 22 10 -10 13 -68 13 -235z m45 184 c-1 -13 -30 34 -30
48 0 9 7 3 15 -13 8 -15 15 -31 15 -35z m-1920 -28 c0 -3 -9 6 -20 20 -11 14
-20 31 -20 39 0 7 9 -2 20 -20 11 -18 20 -35 20 -39z m30 23 c0 -12 -5 -7 -19
24 -11 24 -11 24 3 6 9 -11 16 -24 16 -30z m1805 34 c-3 -5 -11 -10 -16 -10
-6 0 -7 5 -4 10 3 6 11 10 16 10 6 0 7 -4 4 -10z m-1554 -123 c17 -43 30 -80
27 -82 -4 -4 -72 153 -85 195 -10 35 29 -41 58 -113z m-228 51 c2 -13 8 -32
11 -43 4 -11 -2 -4 -13 15 -22 39 -25 50 -12 50 5 0 11 -10 14 -22z m-162 -65
c17 -38 49 -113 70 -168 51 -128 45 -114 133 -295 76 -155 84 -171 119 -223
10 -16 17 -31 14 -33 -5 -6 -23 22 -90 141 -46 82 -102 206 -218 480 -35 82
-65 153 -67 157 -2 5 -1 8 2 8 3 0 20 -30 37 -67z m133 30 c9 -18 14 -33 12
-33 -6 0 -36 55 -36 66 0 11 5 3 24 -33z m1902 -146 c-2 -89 -8 -173 -14 -187
-9 -20 -10 -11 -4 40 4 36 6 122 6 192 -1 71 2 126 6 123 5 -3 7 -78 6 -168z
m-155 21 c0 -128 -13 -248 -31 -289 l-10 -24 5 26 c17 89 25 180 25 293 0 71
3 127 6 123 3 -3 6 -61 5 -129z m-1681 -18 c22 -52 40 -96 40 -99 0 -3 -13 -6
-29 -6 -16 -1 -27 3 -25 7 3 5 10 6 15 3 23 -15 17 27 -16 105 -19 46 -35 86
-35 89 0 13 14 -15 50 -99z m30 17 c-1 -14 -39 52 -40 68 0 6 9 -5 20 -23 11
-18 20 -38 20 -45z m1265 53 c3 -5 1 -10 -4 -10 -6 0 -11 5 -11 10 0 6 2 10 4
10 3 0 8 -4 11 -10z m676 -305 c-9 -58 -9 -57 -5 25 2 47 5 132 6 190 l2 105
3 -130 c2 -71 -1 -157 -6 -190z m-1631 23 c91 -180 238 -363 358 -445 28 -20
50 -38 47 -41 -15 -15 -224 177 -267 246 -11 17 -23 30 -27 28 -4 -3 -8 0 -8
7 0 13 -51 98 -63 107 -8 5 -108 211 -130 267 -7 18 -16 30 -21 27 -11 -6 -11
-1 -3 21 5 11 17 -7 39 -59 18 -41 52 -112 75 -158z m1600 222 c0 -5 -5 -10
-11 -10 -5 0 -7 5 -4 10 3 6 8 10 11 10 2 0 4 -4 4 -10z m-2015 -30 c3 -5 1
-10 -4 -10 -6 0 -11 5 -11 10 0 6 2 10 4 10 3 0 8 -4 11 -10z m139 -35 c4 -14
18 -51 32 -83 20 -45 27 -54 35 -42 8 11 9 9 4 -8 -5 -16 6 -48 38 -110 67
-131 84 -157 97 -154 6 1 9 -2 5 -8 -4 -6 3 -26 15 -45 35 -57 16 -40 -25 23
-47 70 -165 297 -193 372 -11 30 -24 64 -28 74 -5 13 -4 17 3 13 6 -4 14 -18
17 -32z m1374 -59 c4 -51 -30 -160 -69 -219 -79 -120 -216 -178 -368 -157
-132 18 -239 82 -327 195 -44 57 -109 173 -102 181 2 2 114 8 248 15 135 6
306 15 380 19 74 4 158 7 185 6 l50 -1 3 -39z m-1223 -16 c-10 -11 -21 -18
-23 -15 -3 3 3 12 14 20 27 20 30 18 9 -5z m-146 -39 c6 -19 9 -36 6 -39 -4
-5 -16 21 -30 68 -11 38 10 12 24 -29z m151 -306 c13 -21 19 -35 12 -32 -6 4
-26 34 -44 67 -23 43 -37 59 -48 55 -11 -5 -12 -3 -4 5 9 8 3 29 -22 80 -55
112 -38 94 24 -26 32 -61 69 -128 82 -149z m1406 116 c-25 -77 -84 -170 -145
-231 -31 -30 -55 -59 -53 -65 2 -5 1 -7 -3 -3 -4 4 -25 -4 -47 -18 -70 -45
-102 -60 -164 -82 -56 -19 -158 -39 -176 -34 -5 1 -8 -2 -8 -7 0 -5 -9 -7 -20
-4 -38 10 -28 18 24 20 113 6 211 38 318 105 129 82 232 211 269 336 7 23 14
40 17 37 2 -2 -3 -27 -12 -54z m328 15 c-3 -21 -8 -35 -11 -32 -2 2 -1 20 3
40 3 21 8 35 11 32 2 -2 1 -20 -3 -40z m-183 -27 c-5 -13 -10 -19 -10 -12 -1
15 10 45 15 40 3 -2 0 -15 -5 -28z m22 -19 c-3 -12 -8 -19 -11 -16 -5 6 5 36
12 36 2 0 2 -9 -1 -20z m112 -134 c-33 -88 -71 -166 -81 -166 -2 0 9 28 25 63
50 106 62 136 74 189 7 29 13 42 15 31 2 -12 -13 -64 -33 -117z m-129 66 c-1
-16 -6 -29 -12 -29 -9 0 -9 8 -2 29 13 35 15 35 14 0z m-45 -19 c-12 -20 -14
-14 -5 12 4 9 9 14 11 11 3 -2 0 -13 -6 -23z m-46 -41 c-3 -3 -11 0 -18 7 -9
10 -8 11 6 5 10 -3 15 -9 12 -12z m47 -24 c-16 -24 -40 -60 -53 -80 -13 -20
-25 -35 -27 -33 -6 5 92 154 101 155 5 0 -5 -19 -21 -42z m-1420 -68 c54 -72
159 -180 223 -229 l30 -22 -33 18 c-18 9 -59 42 -91 73 -63 59 -201 227 -201
244 0 13 4 8 72 -84z m1389 73 c-13 -25 -71 -97 -71 -89 0 7 72 106 77 106 2
0 -1 -8 -6 -17z m-1251 -19 c0 -2 -7 -4 -15 -4 -8 0 -15 4 -15 10 0 5 7 7 15
4 8 -4 15 -8 15 -10z m-88 -36 c5 1 7 -2 3 -8 -7 -11 135 -163 171 -183 12 -7
51 -28 85 -49 66 -37 165 -70 254 -84 28 -4 42 -9 32 -12 -29 -6 -166 28 -233
58 -128 58 -259 167 -332 275 -19 28 -24 39 -12 25 13 -14 27 -24 32 -22z
m-167 -85 c22 -31 53 -72 70 -92 19 -22 23 -30 10 -22 -11 7 -33 31 -50 54
-75 101 -86 117 -78 117 4 -1 26 -26 48 -57z m1421 -28 c-38 -35 -46 -31 -11
5 16 16 31 28 33 25 3 -3 -7 -16 -22 -30z m-71 -21 c-43 -39 -138 -106 -117
-83 15 17 145 117 152 118 3 0 -13 -16 -35 -35z m-637 -34 c28 -6 54 -15 57
-20 6 -10 -115 25 -153 44 -18 9 -32 19 -32 21 0 3 17 -3 38 -13 20 -11 61
-25 90 -32z m858 -18 c-143 -186 -396 -323 -621 -337 -66 -4 -64 -3 35 14 110
20 206 49 274 83 125 63 262 177 322 267 15 23 29 39 32 37 2 -3 -16 -31 -42
-64z m-234 -12 c-29 -27 -57 -50 -64 -50 -7 0 13 22 43 50 71 65 88 65 21 0z
m-1067 -151 c28 -19 52 -37 55 -41 17 -22 202 -97 244 -99 12 0 15 -3 8 -6
-21 -8 -131 26 -190 58 -99 55 -280 192 -281 212 -1 5 25 -14 57 -41 31 -27
80 -64 107 -83z m945 117 c0 -2 -7 -7 -16 -10 -8 -3 -12 -2 -9 4 6 10 25 14
25 6z m-73 -37 c-22 -11 -41 -18 -44 -15 -3 3 10 12 28 20 50 21 60 18 16 -5z
m-587 -75 c36 -12 56 -23 45 -23 -23 -1 -100 28 -160 58 -21 12 -45 21 -52 21
-7 0 -13 4 -13 10 0 5 26 -2 58 -17 31 -14 86 -36 122 -49z m670 72 c0 -2 -7
-7 -16 -10 -8 -3 -12 -2 -9 4 6 10 25 14 25 6z m-140 -20 c0 -2 -9 -6 -20 -9
-11 -3 -18 -1 -14 4 5 9 34 13 34 5z m-73 -22 c-3 -3 -12 -4 -19 -1 -8 3 -5 6
6 6 11 1 17 -2 13 -5z m127 -8 c-10 -8 -21 -12 -24 -10 -5 6 21 24 34 24 6 0
1 -6 -10 -14z m-230 -4 c2 -4 -12 -9 -32 -10 -20 -2 -46 -5 -57 -9 -11 -3 -17
-2 -13 2 6 7 41 16 90 24 4 0 9 -3 12 -7z m59 1 c-7 -2 -21 -2 -30 0 -10 3 -4
5 12 5 17 0 24 -2 18 -5z m-183 -14 c0 -5 -11 -9 -25 -9 -33 0 -33 15 0 16 14
1 25 -2 25 -7z m310 1 c-8 -5 -22 -9 -30 -9 -10 0 -8 3 5 9 27 12 43 12 25 0z
m-50 -21 c0 -5 -4 -8 -9 -5 -5 4 -21 2 -35 -4 -15 -5 -26 -6 -26 0 0 8 21 15
58 19 6 0 12 -4 12 -10z m-237 -19 c50 0 88 -2 85 -5 -8 -8 -149 -9 -210 -1
-36 5 -58 4 -63 -3 -3 -6 -11 -11 -18 -11 -6 0 -2 7 9 15 13 11 32 14 63 10
24 -3 84 -5 134 -5z m150 3 c-7 -2 -21 -2 -30 0 -10 3 -4 5 12 5 17 0 24 -2
18 -5z m-248 -139 c22 -1 69 -3 105 -4 42 -1 58 -4 45 -9 -26 -10 -213 4 -245
18 -22 10 -20 11 15 5 22 -4 58 -8 80 -10z"/>
<path d="M6100 9160 c-504 -35 -570 -42 -570 -62 0 -8 81 -9 278 -5 152 4 288
9 302 11 14 3 135 12 270 21 228 15 368 30 379 41 29 28 -193 26 -659 -6z"/>
<path d="M4655 9150 c-3 -5 -1 -10 4 -10 6 0 11 5 11 10 0 6 -2 10 -4 10 -3 0
-8 -4 -11 -10z"/>
<path d="M6907 9113 c-12 -11 -8 -43 6 -43 7 0 18 9 24 19 10 16 9 20 -3 25
-19 7 -19 7 -27 -1z"/>
<path d="M7238 9113 c-10 -2 -18 -8 -18 -13 0 -4 9 -6 20 -3 11 3 20 9 20 14
0 5 -1 8 -2 8 -2 -1 -11 -3 -20 -6z"/>
<path d="M4923 9103 c-16 -6 -17 -45 -1 -61 21 -21 55 -14 62 12 3 14 4 30 1
38 -5 13 -39 19 -62 11z"/>
<path d="M3870 9070 c0 -5 5 -10 10 -10 6 0 10 5 10 10 0 6 -4 10 -10 10 -5 0
-10 -4 -10 -10z"/>
<path d="M5890 9006 c0 -2 6 -9 14 -15 10 -9 15 -8 19 2 3 8 -3 13 -14 14 -10
1 -19 0 -19 -1z"/>
<path d="M6171 8993 c-1 -27 15 -39 23 -17 3 8 2 12 -3 9 -5 -3 -12 3 -14 12
-4 14 -5 13 -6 -4z"/>
<path d="M7310 9002 c0 -5 9 -29 19 -53 23 -52 35 -138 56 -388 9 -101 18
-188 21 -193 3 -4 14 -8 25 -8 17 0 19 7 19 58 0 71 -27 352 -40 423 -13 69
-45 133 -75 153 -14 9 -25 12 -25 8z"/>
<path d="M7360 9001 c0 -6 4 -13 10 -16 6 -3 7 1 4 9 -7 18 -14 21 -14 7z"/>
<path d="M3005 8964 c-373 -24 -635 -51 -635 -66 0 -19 39 -20 288 -9 427 20
463 22 582 37 63 8 135 17 160 20 81 10 96 14 79 25 -19 12 -232 9 -474 -7z"/>
<path d="M4210 8864 c-23 -13 -24 -14 -4 -14 12 0 27 7 34 15 15 18 4 18 -30
-1z"/>
<path d="M2020 8859 c0 -5 5 -7 10 -4 6 3 10 8 10 11 0 2 -4 4 -10 4 -5 0 -10
-5 -10 -11z"/>
<path d="M4561 8854 c6 -7 17 -10 25 -7 20 7 18 10 -11 15 -20 4 -23 2 -14 -8z"/>
<path d="M3462 8848 c-18 -18 -15 -25 14 -31 21 -4 25 -1 22 16 -4 25 -19 32
-36 15z"/>
<path d="M4562 8816 c7 -8 15 -12 17 -11 5 6 -10 25 -20 25 -5 0 -4 -6 3 -14z"/>
<path d="M2870 8779 c0 -5 5 -7 10 -4 6 3 10 8 10 11 0 2 -4 4 -10 4 -5 0 -10
-5 -10 -11z"/>
<path d="M5065 8775 c-3 -8 -7 -21 -9 -28 -7 -24 10 -40 37 -33 27 6 42 47 24
65 -16 16 -47 13 -52 -4z"/>
<path d="M1986 8736 c-7 -28 9 -314 24 -441 6 -44 19 -215 30 -380 11 -165 27
-383 35 -485 15 -195 30 -414 41 -592 6 -105 15 -132 28 -85 9 33 7 181 -4
362 -11 187 -36 599 -50 835 -14 237 -72 772 -86 793 -11 17 -12 16 -18 -7z"/>
<path d="M4097 8739 c-22 -13 -22 -25 2 -32 13 -3 21 1 24 14 6 24 -3 30 -26
18z"/>
<path d="M5860 8725 c0 -21 51 -40 61 -23 11 17 -9 38 -37 38 -15 0 -24 -6
-24 -15z"/>
<path d="M6615 8721 c-3 -5 -1 -12 5 -16 5 -3 10 1 10 9 0 18 -6 21 -15 7z"/>
<path d="M3445 8710 c-9 -15 3 -30 24 -30 21 0 44 23 34 33 -10 11 -51 8 -58
-3z"/>
<path d="M2950 8655 c10 -12 10 -15 0 -15 -10 0 -10 -3 0 -15 16 -19 30 -10
30 21 0 18 -5 24 -21 24 -18 0 -19 -2 -9 -15z"/>
<path d="M6610 8660 c0 -5 5 -10 10 -10 6 0 10 5 10 10 0 6 -4 10 -10 10 -5 0
-10 -4 -10 -10z"/>
<path d="M2263 8648 c-20 -24 -19 -53 1 -70 38 -35 69 -17 64 38 -3 34 -7 39
-29 42 -14 2 -30 -3 -36 -10z"/>
<path d="M4752 8424 c-14 -15 -5 -24 24 -24 17 0 34 17 34 33 0 8 -50 -1 -58
-9z"/>
<path d="M5770 8420 c0 -5 5 -10 10 -10 6 0 10 5 10 10 0 6 -4 10 -10 10 -5 0
-10 -4 -10 -10z"/>
<path d="M2990 8400 c0 -5 5 -10 11 -10 5 0 7 5 4 10 -3 6 -8 10 -11 10 -2 0
-4 -4 -4 -10z"/>
<path d="M7336 8337 c3 -10 9 -15 12 -12 3 3 0 11 -7 18 -10 9 -11 8 -5 -6z"/>
<path d="M3566 8215 c-4 -12 -1 -16 11 -13 18 3 21 20 5 26 -5 1 -12 -4 -16
-13z"/>
<path d="M4427 8204 c-13 -14 5 -24 41 -24 35 1 36 2 18 15 -21 16 -48 20 -59
9z"/>
<path d="M6545 8131 c-174 -59 -641 -316 -845 -464 -35 -26 -67 -47 -72 -47
-10 0 -15 41 -28 245 -16 237 -20 259 -47 263 -27 4 -39 -17 -47 -89 -11 -87
-8 -413 4 -524 6 -55 15 -180 20 -278 8 -146 14 -190 34 -248 82 -237 307
-450 538 -510 224 -58 455 22 619 215 246 289 262 827 31 1068 l-36 38 60 26
c32 14 93 38 134 53 41 16 88 34 103 42 l27 15 -26 52 c-76 152 -269 211 -469
143z m45 -391 c0 -5 -7 -6 -17 -3 -11 4 -14 3 -9 -5 10 -17 33 -15 44 4 7 12
15 3 39 -43 105 -200 124 -518 44 -721 -29 -72 -90 -161 -145 -209 -101 -89
-252 -137 -363 -114 -92 18 -230 91 -290 153 -62 62 -86 95 -79 106 3 5 36 5
73 0 82 -10 111 -5 183 33 98 52 132 137 126 314 -2 62 -10 131 -19 159 l-16
48 52 50 c63 61 107 93 107 79 0 -6 7 -8 16 -4 11 4 12 8 4 13 -12 7 28 36
180 128 37 23 70 29 70 12z m-573 -646 c-3 -3 -12 -4 -19 -1 -8 3 -5 6 6 6 11
1 17 -2 13 -5z"/>
<path d="M6537 7724 c-11 -11 3 -24 26 -23 15 0 17 2 7 6 -8 3 -18 10 -21 15
-3 4 -8 5 -12 2z"/>
<path d="M6606 7711 c-4 -7 -5 -15 -2 -18 9 -9 19 4 14 18 -4 11 -6 11 -12 0z"/>
<path d="M6505 7700 c-4 -6 -10 -8 -14 -5 -5 2 -21 -7 -37 -22 -16 -15 -34
-28 -41 -29 -15 -3 -61 -34 -49 -34 4 0 -4 -14 -18 -31 -14 -17 -24 -35 -20
-40 3 -5 -5 -9 -17 -9 -22 0 -22 0 -3 14 10 8 16 18 11 22 -4 4 -7 2 -7 -4 0
-7 -9 -12 -20 -12 -12 0 -20 -7 -20 -17 0 -15 9 -18 53 -18 28 0 61 -5 72 -9
l20 -9 -20 23 c-14 15 -16 24 -8 27 7 2 9 11 6 19 -3 8 0 14 6 14 6 0 11 -4
11 -9 0 -9 30 -3 72 14 13 5 20 0 28 -19 11 -30 21 -34 17 -7 -3 21 -25 51
-35 49 -20 -2 -32 3 -27 11 3 6 18 6 38 0 39 -11 48 -11 45 -1 -5 14 27 47 50
49 32 4 27 -3 -14 -23 -26 -12 -32 -19 -22 -25 19 -12 30 -11 26 3 -3 7 4 17
15 23 22 11 24 30 5 30 -7 0 -16 5 -20 10 -5 7 -11 6 -15 -1 -6 -8 -16 -8 -36
1 -15 6 -24 14 -21 18 4 4 5 7 1 7 -3 0 -9 -5 -12 -10z m45 -30 c8 -5 11 -12
8 -15 -4 -4 -17 0 -30 9 -24 17 -5 23 22 6z m-65 -10 c4 -6 11 -8 16 -5 5 4
14 3 20 -1 8 -5 8 -9 -1 -14 -17 -11 -51 0 -44 14 3 6 -4 -1 -15 -16 -15 -18
-28 -25 -44 -22 -16 3 -14 0 8 -10 26 -13 27 -15 8 -16 -12 0 -29 3 -38 6 -15
6 -15 8 0 24 10 11 24 16 38 12 12 -3 19 -1 15 3 -8 9 9 35 23 35 4 0 11 -5
14 -10z m-117 -115 c-3 -3 -9 2 -12 12 -6 14 -5 15 5 6 7 -7 10 -15 7 -18z"/>
<path d="M6547 7603 c-12 -12 -7 -22 8 -17 8 4 15 10 15 15 0 11 -14 12 -23 2z"/>
<path d="M6590 7570 c-13 -8 -12 -10 3 -10 9 0 17 5 17 10 0 12 -1 12 -20 0z"/>
<path d="M6460 7558 c0 -4 4 -8 9 -8 6 0 12 4 15 8 3 5 -1 9 -9 9 -8 0 -15 -4
-15 -9z"/>
<path d="M6410 7545 c-10 -12 -10 -15 3 -15 8 0 17 5 19 11 2 7 9 5 17 -5 11
-14 11 -16 -3 -16 -23 0 -12 -16 15 -23 15 -4 19 -2 15 9 -3 8 1 17 9 20 8 4
15 10 15 15 0 6 -8 5 -19 0 -14 -8 -22 -7 -31 4 -16 19 -24 19 -40 0z"/>
<path d="M6245 7510 c5 -15 3 -18 -9 -14 -9 3 -22 -1 -31 -9 -16 -16 -21 -32
-7 -23 5 3 21 -2 37 -10 15 -8 31 -11 34 -8 3 4 0 9 -6 11 -7 3 -13 9 -13 14
0 4 7 6 15 3 19 -8 19 10 0 29 -8 8 -11 17 -8 21 4 3 1 6 -6 6 -8 0 -10 -7 -6
-20z m-5 -30 c0 -5 -7 -10 -16 -10 -8 0 -12 5 -9 10 3 6 10 10 16 10 5 0 9 -4
9 -10z"/>
<path d="M6580 7505 c-24 -13 -24 -14 -3 -12 12 1 25 7 27 14 6 16 7 16 -24
-2z"/>
<path d="M6293 7499 c9 -6 14 -15 11 -21 -4 -7 -2 -8 4 -4 16 9 3 36 -17 36
-14 -1 -14 -2 2 -11z"/>
<path d="M6324 7493 c3 -8 6 -20 6 -25 0 -15 15 0 15 15 0 7 9 10 20 9 11 -2
17 -1 13 3 -4 4 -19 9 -33 11 -20 2 -25 -1 -21 -13z"/>
<path d="M6506 7485 c4 -8 11 -15 16 -15 6 0 5 6 -2 15 -7 8 -14 15 -16 15 -2
0 -1 -7 2 -15z"/>
<path d="M6440 7480 c0 -5 5 -10 11 -10 5 0 7 5 4 10 -3 6 -8 10 -11 10 -2 0
-4 -4 -4 -10z"/>
<path d="M6303 7453 c9 -14 47 -24 47 -12 0 5 -4 9 -9 9 -5 0 -17 3 -27 7 -11
4 -15 3 -11 -4z"/>
<path d="M6185 7440 c-11 -17 5 -31 19 -17 14 12 12 27 -4 27 -5 0 -12 -4 -15
-10z"/>
<path d="M6271 7413 c-1 -17 -6 -21 -18 -17 -15 5 -16 4 -3 -5 19 -13 33 1 27
25 -4 16 -5 15 -6 -3z"/>
<path d="M6290 7419 c0 -5 5 -7 10 -4 6 3 10 8 10 11 0 2 -4 4 -10 4 -5 0 -10
-5 -10 -11z"/>
<path d="M6646 7135 c-4 -44 -9 -89 -11 -100 -2 -11 0 -27 5 -35 7 -11 10 -5
10 22 0 20 6 43 13 50 18 17 17 46 0 52 -10 4 -11 11 -3 25 6 12 7 28 1 43 -7
18 -10 5 -15 -57z"/>
<path d="M6545 6840 c3 -5 8 -10 11 -10 2 0 4 5 4 10 0 6 -5 10 -11 10 -5 0
-7 -4 -4 -10z"/>
<path d="M5246 8136 c3 -8 0 -25 -7 -38 -11 -21 -11 -22 4 -9 18 14 23 61 7
61 -5 0 -7 -6 -4 -14z"/>
<path d="M5109 8043 c-1 -4 -3 -82 -5 -172 -3 -157 -4 -166 -33 -227 -28 -60
-101 -151 -101 -126 0 6 -17 14 -37 17 -162 25 -234 43 -473 120 -25 8 -89 26
-143 40 -54 15 -124 35 -155 46 -119 41 -431 128 -534 148 -160 32 -297 24
-398 -22 -73 -33 -120 -97 -120 -164 0 -40 2 -42 33 -47 188 -27 213 -36 196
-68 -23 -43 -68 -217 -84 -329 -37 -249 22 -464 176 -636 134 -152 392 -276
619 -298 133 -13 351 36 510 114 65 33 166 108 222 165 120 125 190 328 202
586 5 110 7 116 33 140 134 121 199 302 173 482 -21 144 -45 233 -63 236 -9 2
-17 0 -18 -5z m-1429 -518 c83 -20 180 -57 180 -69 0 -4 -9 -6 -20 -3 -16 4
-20 0 -20 -18 0 -13 -4 -27 -10 -30 -13 -8 -35 5 -22 14 11 7 26 51 18 51 -6
0 -36 -54 -36 -64 0 -7 56 -36 70 -36 6 0 8 5 5 10 -4 6 -10 8 -15 5 -5 -3
-11 -1 -15 5 -3 5 -1 10 4 10 6 0 11 6 11 14 0 8 5 18 12 22 6 4 8 3 5 -3 -3
-5 1 -10 9 -10 8 0 13 6 10 13 -9 24 7 22 57 -8 84 -49 87 -53 87 -128 0 -237
111 -399 300 -439 191 -41 350 74 441 319 18 49 39 90 46 90 16 0 18 -139 4
-203 -6 -23 -12 -55 -16 -70 -3 -15 -9 -26 -13 -23 -4 3 -14 1 -22 -5 -13 -7
-12 -9 3 -9 23 0 22 -2 -19 -80 -89 -169 -310 -316 -519 -344 -121 -17 -346
48 -485 140 -107 70 -169 151 -218 283 -21 58 -24 82 -24 196 0 130 13 241 34
303 11 30 28 38 69 34 3 -1 5 9 4 21 -2 29 -35 35 -42 8 -3 -12 -9 -21 -14
-21 -13 0 -11 13 6 37 12 17 20 20 42 13 16 -5 57 -16 93 -25z m150 -1005 c0
-5 -2 -10 -4 -10 -3 0 -8 5 -11 10 -3 6 -1 10 4 10 6 0 11 -4 11 -10z"/>
<path d="M3610 7521 c0 -9 30 -35 66 -57 11 -7 15 -15 11 -20 -4 -5 -13 -2
-18 6 -8 12 -9 11 -7 -5 3 -16 12 -20 48 -21 41 -1 59 8 60 29 0 5 -4 5 -10 2
-5 -3 -10 0 -10 7 -1 8 -9 4 -19 -9 -24 -28 -41 -30 -34 -3 3 13 0 20 -8 20
-11 0 -11 3 1 11 12 8 10 9 -7 4 -14 -4 -23 -2 -23 4 0 6 -6 11 -14 11 -8 0
-18 4 -21 10 -4 6 1 7 11 3 12 -4 15 -3 10 5 -9 14 -36 16 -36 3z m140 -81 c0
-5 -2 -10 -4 -10 -3 0 -8 5 -11 10 -3 6 -1 10 4 10 6 0 11 -4 11 -10z"/>
<path d="M3720 7485 c-11 -13 -10 -14 4 -9 9 3 16 10 16 15 0 13 -6 11 -20 -6z"/>
<path d="M3572 7468 c-7 -7 -18 -13 -24 -13 -6 0 -13 -6 -16 -14 -3 -8 0 -11
6 -7 6 3 26 -7 45 -24 19 -16 45 -30 58 -29 13 0 18 3 10 6 -11 5 -11 7 0 14
11 7 11 9 -3 9 -9 0 -19 -6 -21 -12 -3 -8 -6 -6 -6 5 -1 9 4 17 9 17 6 0 10 7
10 15 0 8 -4 15 -10 15 -5 0 -9 -3 -8 -7 0 -5 -2 -16 -7 -26 -7 -16 -9 -16
-26 4 -14 16 -16 26 -8 40 11 22 8 24 -9 7z"/>
<path d="M3595 7451 c-3 -5 -1 -12 5 -16 5 -3 10 1 10 9 0 18 -6 21 -15 7z"/>
<path d="M3880 7420 c0 -23 15 -27 23 -6 3 8 -1 17 -9 20 -9 4 -14 -1 -14 -14z"/>
<path d="M3725 7398 c1 -7 9 -12 16 -10 8 1 4 -5 -8 -15 -20 -16 -21 -20 -8
-43 16 -29 20 -19 5 11 -7 13 -7 19 0 19 5 0 10 -4 10 -9 0 -5 8 -12 18 -16
14 -5 15 -4 5 6 -19 19 -16 31 7 24 11 -4 20 -2 20 4 0 6 -7 11 -15 11 -8 0
-15 5 -15 11 0 6 -6 9 -14 6 -8 -3 -17 -2 -20 4 -2 5 -3 4 -1 -3z"/>
<path d="M3857 7404 c-9 -9 40 -54 57 -53 7 0 7 2 -1 5 -7 3 -9 12 -6 20 3 9
-2 14 -15 14 -11 0 -22 5 -24 11 -2 5 -7 7 -11 3z"/>
<path d="M3910 7403 c0 -5 5 -15 11 -23 9 -13 10 -13 6 2 -3 9 -1 19 6 22 7 2
4 5 -5 5 -10 1 -18 -2 -18 -6z"/>
<path d="M3675 7376 c3 -11 1 -23 -6 -26 -6 -5 -3 -9 10 -13 25 -6 26 -1 5 33
-10 16 -13 18 -9 6z"/>
<path d="M3954 7376 c-8 -9 -9 -18 -2 -30 9 -17 6 -18 -31 -14 -43 4 -57 -8
-18 -17 25 -5 78 -2 71 4 -2 2 3 12 12 22 10 11 12 19 4 24 -6 3 -9 1 -8 -6 2
-6 -3 -14 -11 -17 -10 -3 -12 2 -7 22 7 29 6 31 -10 12z"/>
<path d="M3859 7363 c-1 -5 -1 -11 -1 -14 1 -3 -11 -4 -25 -1 -18 3 -24 1 -19
-7 4 -6 18 -11 32 -11 17 0 24 5 24 20 0 19 -9 29 -11 13z"/>
<path d="M3805 7310 c-19 -8 -19 -9 3 -9 12 -1 22 4 22 9 0 6 -1 10 -2 9 -2 0
-12 -4 -23 -9z"/>
<path d="M3840 7310 c0 -5 5 -10 10 -10 6 0 10 5 10 10 0 6 -4 10 -10 10 -5 0
-10 -4 -10 -10z"/>
<path d="M3877 7295 c-4 -8 -2 -17 4 -20 5 -4 8 -1 7 7 -2 8 5 12 17 10 16 -2
17 -1 5 7 -20 14 -27 14 -33 -4z"/>
<path d="M3980 7229 c0 -5 5 -7 10 -4 6 3 10 8 10 11 0 2 -4 4 -10 4 -5 0 -10
-5 -10 -11z"/>
<path d="M4757 7059 c7 -7 15 -10 18 -7 3 3 -2 9 -12 12 -14 6 -15 5 -6 -5z"/>
<path d="M4695 6960 c4 -6 11 -8 16 -5 14 9 11 15 -7 15 -8 0 -12 -5 -9 -10z"/>
<path d="M4630 6868 c0 -7 5 -20 10 -28 8 -12 10 -9 10 13 0 15 -4 27 -10 27
-5 0 -10 -6 -10 -12z"/>
<path d="M4525 6850 c-19 -8 -19 -9 3 -9 12 -1 22 4 22 9 0 6 -1 10 -2 9 -2 0
-12 -4 -23 -9z"/>
<path d="M4600 6809 c0 -5 5 -7 10 -4 6 3 10 8 10 11 0 2 -4 4 -10 4 -5 0 -10
-5 -10 -11z"/>
<path d="M4430 6789 c0 -5 5 -7 10 -4 6 3 10 8 10 11 0 2 -4 4 -10 4 -5 0 -10
-5 -10 -11z"/>
<path d="M4335 6780 c-3 -5 -1 -10 4 -10 6 0 11 5 11 10 0 6 -2 10 -4 10 -3 0
-8 -4 -11 -10z"/>
<path d="M7295 8001 c3 -11 1 -22 -4 -26 -6 -3 -8 0 -5 8 3 9 -3 16 -15 20
-17 4 -21 0 -21 -16 0 -32 15 -51 31 -41 8 5 20 9 27 10 21 4 25 11 18 39 -4
14 -13 25 -22 25 -11 0 -13 -6 -9 -19z"/>
<path d="M4540 7869 c0 -5 5 -7 10 -4 6 3 10 8 10 11 0 2 -4 4 -10 4 -5 0 -10
-5 -10 -11z"/>
<path d="M6925 7740 c3 -5 8 -10 11 -10 2 0 4 5 4 10 0 6 -5 10 -11 10 -5 0
-7 -4 -4 -10z"/>
<path d="M4340 7719 c0 -5 5 -7 10 -4 6 3 10 8 10 11 0 2 -4 4 -10 4 -5 0 -10
-5 -10 -11z"/>
<path d="M2413 7664 c-16 -7 -17 -46 -1 -62 30 -30 86 -3 83 40 -1 19 -8 23
-36 25 -19 1 -40 0 -46 -3z"/>
<path d="M5240 7660 c0 -5 5 -10 11 -10 5 0 7 5 4 10 -3 6 -8 10 -11 10 -2 0
-4 -4 -4 -10z"/>
<path d="M7483 7423 c7 -236 19 -409 31 -421 17 -17 19 35 7 296 -13 315 -18
372 -34 372 -7 0 -8 -79 -4 -247z"/>
<path d="M3120 7641 c0 -4 6 -16 14 -26 7 -10 11 -27 8 -37 -3 -12 1 -18 13
-18 13 0 15 3 6 13 -6 8 -8 17 -4 20 3 4 1 13 -6 21 -9 11 -9 15 1 18 7 3 3 7
-10 10 -12 4 -22 3 -22 -1z"/>
<path d="M3040 7620 c0 -13 33 -21 42 -12 6 6 -1 11 -16 14 -14 3 -26 2 -26
-2z"/>
<path d="M3203 7597 c4 -12 1 -15 -11 -11 -13 4 -13 2 3 -11 11 -9 19 -18 17
-21 -2 -3 -1 -8 2 -11 3 -4 6 8 6 25 0 17 -5 34 -12 38 -7 5 -9 2 -5 -9z"/>
<path d="M3257 7599 c7 -7 15 -10 18 -7 3 3 -2 9 -12 12 -14 6 -15 5 -6 -5z"/>
<path d="M3115 7590 c-3 -5 -1 -10 4 -10 6 0 11 5 11 10 0 6 -2 10 -4 10 -3 0
-8 -4 -11 -10z"/>
<path d="M3144 7542 c3 -6 19 -12 36 -14 37 -6 27 7 -13 16 -17 4 -26 3 -23
-2z"/>
<path d="M3244 7541 c3 -5 15 -7 26 -4 28 7 25 13 -6 13 -14 0 -23 -4 -20 -9z"/>
<path d="M2482 6928 c-18 -18 5 -40 29 -27 23 12 26 34 3 25 -8 -3 -12 -2 -9
4 9 14 -8 13 -23 -2z"/>
<path d="M2726 6793 c-12 -29 12 -39 36 -15 12 12 19 25 14 29 -4 4 -11 1 -16
-7 -7 -10 -10 -11 -10 -2 0 18 -17 15 -24 -5z"/>
<path d="M3170 6753 c19 -95 119 -264 197 -333 43 -37 73 -51 73 -32 0 4 -23
35 -51 67 -63 74 -156 213 -189 282 -30 62 -40 67 -30 16z"/>
<path d="M2830 6730 c-9 -6 -10 -10 -3 -10 6 0 15 5 18 10 8 12 4 12 -15 0z"/>
<path d="M6873 6653 c-28 -38 -101 -120 -162 -183 -61 -63 -106 -117 -100
-119 17 -6 116 68 171 128 62 68 148 197 148 222 0 11 -1 19 -3 19 -1 0 -25
-30 -54 -67z"/>
<path d="M6980 6633 c0 -11 7 -13 26 -9 19 5 25 3 22 -6 -3 -7 -17 -13 -31
-13 -14 -1 -29 -4 -33 -8 -4 -4 9 -7 28 -7 24 0 38 5 42 16 8 21 1 31 -29 36
-17 4 -25 1 -25 -9z"/>
<path d="M3420 6581 c0 -25 6 -27 13 -6 4 8 2 17 -3 20 -6 4 -10 -3 -10 -14z"/>
<path d="M2676 6577 c3 -10 9 -15 12 -12 3 3 0 11 -7 18 -10 9 -11 8 -5 -6z"/>
<path d="M6900 6570 c0 -5 5 -10 11 -10 5 0 7 5 4 10 -3 6 -8 10 -11 10 -2 0
-4 -4 -4 -10z"/>
<path d="M6930 6560 c0 -5 5 -10 10 -10 6 0 10 5 10 10 0 6 -4 10 -10 10 -5 0
-10 -4 -10 -10z"/>
<path d="M2558 6553 c7 -3 16 -2 19 1 4 3 -2 6 -13 5 -11 0 -14 -3 -6 -6z"/>
<path d="M3440 6550 c0 -5 9 -10 21 -10 11 0 17 5 14 10 -3 6 -13 10 -21 10
-8 0 -14 -4 -14 -10z"/>
<path d="M2808 6533 c6 -2 18 -2 25 0 6 3 1 5 -13 5 -14 0 -19 -2 -12 -5z"/>
<path d="M2833 6405 c-10 -10 -9 -16 2 -25 11 -9 15 -9 15 -1 0 6 7 11 15 11
21 0 19 25 -2 27 -10 1 -23 -5 -30 -12z"/>
<path d="M6516 6323 c-19 -19 33 -86 59 -76 14 5 8 43 -6 43 -5 0 -5 -8 -2
-17 6 -14 3 -14 -20 3 -29 21 -36 40 -12 30 8 -3 15 -1 15 3 0 11 -26 22 -34
14z"/>
<path d="M3636 6304 c-9 -24 -9 -24 28 -21 27 1 32 5 24 15 -6 7 -17 11 -25 8
-8 -3 -11 -1 -8 4 3 6 2 10 -3 10 -6 0 -13 -7 -16 -16z"/>
<path d="M7611 6274 c-11 -13 -12 -88 -6 -452 7 -432 11 -470 40 -441 15 15
14 292 -1 514 -7 105 -13 236 -14 293 -1 56 -3 102 -4 102 0 -1 -7 -8 -15 -16z"/>
<path d="M5211 6234 c-382 -57 -901 -309 -1104 -535 -74 -82 -153 -199 -167
-247 -32 -108 -17 -213 36 -263 34 -32 48 -21 105 79 69 120 173 246 264 319
227 182 562 366 752 412 43 11 132 27 197 36 101 15 137 16 240 6 145 -14 159
-16 258 -41 146 -37 255 -90 393 -190 126 -91 210 -191 265 -315 57 -127 50
-120 108 -123 64 -4 88 9 97 50 4 18 12 36 18 39 16 11 -21 144 -64 228 -129
256 -418 445 -814 532 -129 28 -440 35 -584 13z"/>
<path d="M2960 6225 c0 -13 4 -14 20 -5 11 6 20 13 20 15 0 3 -9 5 -20 5 -11
0 -20 -7 -20 -15z"/>
<path d="M3690 6180 c0 -5 5 -10 11 -10 5 0 7 5 4 10 -3 6 -8 10 -11 10 -2 0
-4 -4 -4 -10z"/>
<path d="M4041 5984 c0 -11 3 -14 6 -6 3 7 2 16 -1 19 -3 4 -6 -2 -5 -13z"/>
<path d="M5135 5990 c-11 -4 -23 -6 -27 -3 -5 2 -8 -1 -8 -7 0 -11 47 -6 59 6
9 9 -5 11 -24 4z"/>
<path d="M6965 5980 c-3 -5 -12 -7 -19 -4 -19 7 -27 -8 -12 -22 9 -9 18 -5 33
12 12 13 18 24 13 24 -5 0 -11 -4 -15 -10z"/>
<path d="M5138 5964 c-28 -14 -38 -34 -18 -34 6 0 10 4 10 9 0 5 11 12 25 15
14 4 25 11 25 16 0 13 -10 12 -42 -6z"/>
<path d="M5930 5815 c-7 -9 -11 -18 -8 -20 3 -3 11 1 18 10 7 9 11 18 8 20 -3
3 -11 -1 -18 -10z"/>
<path d="M4676 5761 c-4 -5 -13 -8 -21 -4 -11 4 -15 -3 -15 -26 0 -37 27 -42
55 -11 17 19 17 22 3 36 -10 10 -18 12 -22 5z"/>
<path d="M3960 5750 c-10 -6 -11 -10 -2 -10 6 0 12 -7 12 -15 0 -8 6 -15 14
-15 15 0 16 42 1 47 -5 1 -17 -2 -25 -7z m30 -10 c0 -5 -2 -10 -4 -10 -3 0 -8
5 -11 10 -3 6 -1 10 4 10 6 0 11 -4 11 -10z"/>
<path d="M7040 5730 c0 -5 5 -10 10 -10 6 0 10 5 10 10 0 6 -4 10 -10 10 -5 0
-10 -4 -10 -10z"/>
<path d="M5380 5719 c0 -6 9 -8 20 -4 16 5 19 3 14 -12 -5 -14 -4 -15 4 -3 6
8 8 18 6 22 -8 12 -44 10 -44 -3z"/>
<path d="M4060 5710 c0 -5 5 -10 11 -10 5 0 7 5 4 10 -3 6 -8 10 -11 10 -2 0
-4 -4 -4 -10z"/>
<path d="M6815 5638 c-3 -13 -4 -104 -3 -203 3 -165 5 -180 21 -183 54 -11 83
95 66 243 -5 50 -17 106 -27 125 -21 42 -49 51 -57 18z"/>
<path d="M5310 5624 c-181 -32 -289 -85 -400 -193 -80 -79 -150 -173 -150
-203 0 -23 37 -33 59 -16 10 7 73 59 140 116 177 149 290 199 466 206 187 8
310 -21 472 -110 54 -30 103 -52 110 -49 22 8 14 53 -14 84 -50 53 -159 103
-308 141 -78 20 -313 35 -375 24z"/>
<path d="M3590 5590 c0 -5 7 -10 16 -10 8 0 12 5 9 10 -3 6 -10 10 -16 10 -5
0 -9 -4 -9 -10z"/>
<path d="M4665 5580 c-3 -5 -1 -10 4 -10 6 0 11 5 11 10 0 6 -2 10 -4 10 -3 0
-8 -4 -11 -10z"/>
<path d="M6250 5559 c0 -5 5 -7 10 -4 6 3 10 8 10 11 0 2 -4 4 -10 4 -5 0 -10
-5 -10 -11z"/>
<path d="M4798 5503 c7 -3 16 -2 19 1 4 3 -2 6 -13 5 -11 0 -14 -3 -6 -6z"/>
<path d="M5363 5503 c15 -4 16 -7 5 -21 -12 -15 -11 -16 4 -3 20 15 15 32 -10
30 -15 -1 -15 -2 1 -6z"/>
<path d="M6695 5430 c-3 -5 -1 -10 4 -10 6 0 11 5 11 10 0 6 -2 10 -4 10 -3 0
-8 -4 -11 -10z"/>
<path d="M6990 5346 c0 -2 7 -7 16 -10 8 -3 12 -2 9 4 -6 10 -25 14 -25 6z"/>
<path d="M6310 5299 c0 -5 5 -7 10 -4 6 3 10 8 10 11 0 2 -4 4 -10 4 -5 0 -10
-5 -10 -11z"/>
<path d="M4540 5286 c0 -2 7 -7 16 -10 8 -3 12 -2 9 4 -6 10 -25 14 -25 6z"/>
<path d="M5196 5265 c-32 -48 -14 -71 32 -39 26 18 29 49 6 58 -21 8 -20 9
-38 -19z"/>
<path d="M4940 5190 c0 -5 7 -10 16 -10 8 0 12 5 9 10 -3 6 -10 10 -16 10 -5
0 -9 -4 -9 -10z"/>
<path d="M5180 5170 c0 -5 5 -10 11 -10 5 0 7 5 4 10 -3 6 -8 10 -11 10 -2 0
-4 -4 -4 -10z"/>
<path d="M5980 5150 c-9 -6 -10 -10 -3 -10 6 0 15 5 18 10 8 12 4 12 -15 0z"/>
<path d="M7416 4947 c-37 -37 -35 -64 4 -64 17 0 27 3 23 6 -4 3 -9 13 -11 21
-2 8 -1 12 3 8 4 -4 14 0 23 8 13 14 13 17 -1 31 -14 14 -18 13 -41 -10z"/>
<path d="M6923 4948 c0 -7 -2 -20 -4 -28 -3 -9 5 -16 19 -18 30 -5 42 26 17
44 -23 17 -32 18 -32 2z"/>
<path d="M5313 4900 c-2 -28 -1 -28 16 -12 12 12 15 21 8 30 -15 19 -22 14
-24 -18z"/>
<path d="M4339 4829 c-9 -18 -8 -20 12 -17 27 4 36 23 15 31 -10 4 -20 -2 -27
-14z"/>
<path d="M6815 4830 c-3 -5 1 -10 10 -10 9 0 13 5 10 10 -3 6 -8 10 -10 10 -2
0 -7 -4 -10 -10z"/>
<path d="M6860 4815 c-7 -8 -19 -15 -26 -15 -8 0 -14 -4 -14 -9 0 -5 12 -8 26
-8 17 0 23 4 20 13 -3 7 0 15 7 17 7 2 9 7 6 11 -3 4 -12 0 -19 -9z"/>
<path d="M4575 4800 c4 -6 11 -8 16 -5 14 9 11 15 -7 15 -8 0 -12 -5 -9 -10z"/>
<path d="M5100 4800 c0 -5 5 -10 10 -10 6 0 10 5 10 10 0 6 -4 10 -10 10 -5 0
-10 -4 -10 -10z"/>
<path d="M5046 4774 c-9 -8 -16 -19 -16 -24 0 -15 21 -23 33 -11 8 8 7 11 -3
11 -12 1 -11 4 3 14 10 8 14 17 8 20 -5 3 -17 -1 -25 -10z"/>
<path d="M5140 4760 c0 -5 5 -10 10 -10 6 0 10 5 10 10 0 6 -4 10 -10 10 -5 0
-10 -4 -10 -10z"/>
<path d="M7706 4744 c-14 -36 -6 -64 19 -70 14 -3 32 -4 40 0 18 7 20 57 3 74
-17 17 -55 15 -62 -4z"/>
<path d="M4766 4734 c-10 -25 -7 -33 13 -44 25 -13 48 -4 57 22 11 35 -57 56
-70 22z"/>
<path d="M5760 4550 c0 -5 5 -10 10 -10 6 0 10 5 10 10 0 6 -4 10 -10 10 -5 0
-10 -4 -10 -10z"/>
<path d="M5377 4463 c3 -7 6 -13 8 -13 1 0 7 6 13 13 8 10 6 13 -7 13 -11 0
-17 -6 -14 -13z"/>
<path d="M7671 4464 c0 -11 3 -14 6 -6 3 7 2 16 -1 19 -3 4 -6 -2 -5 -13z"/>
<path d="M7335 4420 c3 -5 8 -10 11 -10 2 0 4 5 4 10 0 6 -5 10 -11 10 -5 0
-7 -4 -4 -10z"/>
<path d="M6670 4396 c0 -2 7 -9 15 -16 13 -11 14 -10 9 4 -5 14 -24 23 -24 12z"/>
<path d="M4228 4364 c-11 -22 -10 -28 7 -40 26 -19 32 -18 50 10 20 30 10 56
-21 56 -17 0 -28 -8 -36 -26z"/>
<path d="M7780 4340 c-8 -5 -10 -10 -5 -10 6 0 17 5 25 10 8 5 11 10 5 10 -5
0 -17 -5 -25 -10z"/>
<path d="M7695 4321 c-3 -5 -1 -12 5 -16 5 -3 10 1 10 9 0 18 -6 21 -15 7z"/>
<path d="M7744 4254 c-6 -24 0 -236 11 -394 3 -36 12 -159 20 -275 8 -115 17
-223 20 -240 2 -16 7 -84 11 -150 3 -66 9 -124 12 -129 3 -5 11 -1 19 9 15 22
17 128 3 280 -4 55 -16 206 -24 335 -23 327 -47 580 -57 586 -5 3 -11 -7 -15
-22z"/>
<path d="M6716 4223 c-6 -14 -5 -15 5 -6 7 7 10 15 7 18 -3 3 -9 -2 -12 -12z"/>
<path d="M7260 4200 c-8 -16 -8 -28 1 -49 11 -24 16 -27 43 -22 24 5 32 13 34
33 6 49 -56 79 -78 38z"/>
<path d="M4120 4189 c0 -5 5 -7 10 -4 6 3 10 8 10 11 0 2 -4 4 -10 4 -5 0 -10
-5 -10 -11z"/>
<path d="M7470 4080 c0 -5 5 -10 10 -10 6 0 10 5 10 10 0 6 -4 10 -10 10 -5 0
-10 -4 -10 -10z"/>
<path d="M7305 4070 c-3 -5 -2 -10 4 -10 5 0 13 5 16 10 3 6 2 10 -4 10 -5 0
-13 -4 -16 -10z"/>
<path d="M7535 4071 c4 -8 2 -17 -6 -22 -9 -6 -10 -9 -2 -9 19 0 27 21 13 33
-10 9 -11 9 -5 -2z"/>
<path d="M4401 4005 c-25 -33 -20 -58 15 -69 24 -7 37 11 39 54 1 20 -4 25
-23 25 -13 0 -27 -4 -31 -10z"/>
<path d="M4901 4007 c-19 -7 -40 -22 -48 -33 -12 -19 -12 -24 2 -38 9 -9 20
-16 24 -16 21 0 59 43 63 70 5 34 6 33 -41 17z"/>
<path d="M7194 3992 c3 -5 1 -12 -6 -14 -8 -3 -9 -6 -1 -11 6 -4 13 0 17 8 3
8 0 17 -6 21 -6 4 -8 3 -4 -4z"/>
<path d="M6173 3860 c-28 -11 -28 -15 -5 -40 25 -27 62 -22 62 7 0 13 1 26 3
31 3 11 -35 12 -60 2z"/>
<path d="M5746 3834 c-9 -23 7 -38 33 -29 20 6 30 35 12 35 -5 0 -16 3 -24 6
-8 3 -17 -2 -21 -12z"/>
<path d="M7565 3780 c3 -5 8 -10 11 -10 2 0 4 5 4 10 0 6 -5 10 -11 10 -5 0
-7 -4 -4 -10z"/>
<path d="M5577 3746 c-10 -25 -9 -26 8 -20 11 5 13 2 9 -10 -7 -19 9 -21 24
-3 13 15 -1 43 -16 33 -6 -3 -12 -1 -14 6 -3 7 -7 5 -11 -6z"/>
<path d="M5085 3650 c-12 -13 -13 -20 -5 -25 7 -4 9 -17 6 -28 -4 -17 -1 -16
19 8 13 17 24 33 25 38 0 4 1 10 3 14 5 15 -33 10 -48 -7z m30 -10 c-3 -5 -11
-10 -16 -10 -6 0 -7 5 -4 10 3 6 11 10 16 10 6 0 7 -4 4 -10z"/>
<path d="M5577 3633 c-4 -3 -7 -11 -7 -17 0 -6 5 -5 12 2 6 6 9 14 7 17 -3 3
-9 2 -12 -2z"/>
<path d="M7540 3633 c0 -15 29 -49 30 -35 0 7 -7 20 -15 28 -8 9 -15 11 -15 7z"/>
<path d="M6434 3595 c-19 -15 -19 -16 1 -13 15 2 20 -2 18 -17 -1 -17 1 -17
18 5 10 14 19 28 19 33 0 13 -35 8 -56 -8z"/>
<path d="M6807 3603 c-4 -3 -7 -16 -6 -27 0 -19 1 -19 10 3 10 24 8 36 -4 24z"/>
<path d="M5932 3578 c-16 -16 -15 -33 1 -46 18 -15 56 12 54 38 -1 23 -35 28
-55 8z"/>
<path d="M6500 3579 c0 -5 5 -7 10 -4 6 3 10 8 10 11 0 2 -4 4 -10 4 -5 0 -10
-5 -10 -11z"/>
<path d="M7064 3565 c-10 -8 -15 -15 -10 -15 6 0 1 -7 -10 -15 -18 -14 -17
-14 11 -11 17 2 41 8 55 14 21 8 22 11 8 17 -9 4 -23 3 -29 -1 -9 -5 -10 -2
-6 9 8 21 6 21 -19 2z"/>
<path d="M6406 3524 c-14 -37 29 -47 59 -14 17 18 17 20 2 14 -10 -3 -17 -1
-17 5 0 17 -37 13 -44 -5z"/>
<path d="M6055 3490 c3 -5 8 -10 11 -10 2 0 4 5 4 10 0 6 -5 10 -11 10 -5 0
-7 -4 -4 -10z"/>
<path d="M6058 3463 c7 -3 16 -2 19 1 4 3 -2 6 -13 5 -11 0 -14 -3 -6 -6z"/>
<path d="M4500 3426 c0 -94 59 -271 82 -248 12 12 -6 196 -23 241 -20 52 -59
56 -59 7z"/>
<path d="M5853 3380 c-13 -5 -23 -14 -23 -19 0 -5 -3 -16 -6 -25 -11 -29 11
-16 34 19 12 19 21 35 20 34 -2 0 -13 -4 -25 -9z"/>
<path d="M5870 3345 c0 -8 4 -15 8 -15 5 0 9 7 9 15 0 8 -4 15 -9 15 -4 0 -8
-7 -8 -15z"/>
<path d="M6552 3331 c-8 -22 -7 -33 4 -45 8 -9 9 -11 2 -6 -18 15 -28 12 -22
-5 8 -20 47 -19 66 3 24 27 31 69 12 76 -33 13 -52 6 -62 -23z"/>
<path d="M7280 3251 c-22 -43 29 -92 77 -74 19 7 27 48 13 72 -15 28 -75 29
-90 2z"/>
<path d="M4380 3249 c0 -5 5 -7 10 -4 6 3 10 8 10 11 0 2 -4 4 -10 4 -5 0 -10
-5 -10 -11z"/>
<path d="M6410 3239 c-10 -17 -9 -24 4 -38 15 -14 18 -14 26 -1 13 19 9 52 -7
57 -6 2 -17 -6 -23 -18z"/>
<path d="M5032 3225 c-15 -32 -7 -52 26 -60 20 -5 30 -1 44 17 29 39 16 68
-33 68 -18 0 -29 -8 -37 -25z"/>
<path d="M7526 3172 c2 -3 -1 -11 -7 -19 -8 -9 -8 -13 -1 -13 16 0 26 20 15
30 -6 4 -8 5 -7 2z"/>
<path d="M7755 3139 c-4 -6 -5 -12 -2 -15 2 -3 7 2 10 11 7 17 1 20 -8 4z"/>
<path d="M5430 3120 c0 -5 5 -10 11 -10 5 0 7 5 4 10 -3 6 -8 10 -11 10 -2 0
-4 -4 -4 -10z"/>
<path d="M5570 3111 c-7 -15 -7 -21 0 -21 12 0 25 28 17 36 -3 3 -10 -4 -17
-15z"/>
<path d="M7198 3123 c7 -3 16 -2 19 1 4 3 -2 6 -13 5 -11 0 -14 -3 -6 -6z"/>
<path d="M5610 3101 c0 -6 5 -13 10 -16 6 -3 10 1 10 9 0 9 -4 16 -10 16 -5 0
-10 -4 -10 -9z"/>
<path d="M6978 3103 c7 -3 16 -2 19 1 4 3 -2 6 -13 5 -11 0 -14 -3 -6 -6z"/>
<path d="M7678 3103 c-25 -6 -33 -42 -14 -61 14 -14 16 -14 22 1 3 9 9 15 13
13 3 -2 6 9 7 25 1 16 -2 28 -5 28 -3 -1 -14 -3 -23 -6z"/>
<path d="M7726 3101 c-4 -7 -5 -15 -2 -18 9 -9 19 4 14 18 -4 11 -6 11 -12 0z"/>
<path d="M5635 3070 c-3 -5 1 -10 9 -10 9 0 16 5 16 10 0 6 -4 10 -9 10 -6 0
-13 -4 -16 -10z"/>
<path d="M6616 3067 c-23 -10 -26 -15 -15 -23 36 -28 75 -20 50 10 -6 7 -8 16
-4 19 9 9 3 8 -31 -6z"/>
<path d="M7146 3002 c-2 -4 4 -8 14 -8 10 0 16 4 14 8 -3 4 -9 8 -14 8 -5 0
-11 -4 -14 -8z"/>
<path d="M7790 2980 c0 -5 5 -10 11 -10 5 0 7 5 4 10 -3 6 -8 10 -11 10 -2 0
-4 -4 -4 -10z"/>
<path d="M6780 2968 c0 -9 5 -20 10 -23 13 -8 13 5 0 25 -8 13 -10 13 -10 -2z"/>
<path d="M7900 2969 c0 -5 5 -7 10 -4 6 3 10 8 10 11 0 2 -4 4 -10 4 -5 0 -10
-5 -10 -11z"/>
<path d="M7767 2951 c-4 -17 -3 -21 5 -13 5 5 8 16 6 23 -3 8 -7 3 -11 -10z"/>
<path d="M5060 2946 c0 -2 7 -7 16 -10 8 -3 12 -2 9 4 -6 10 -25 14 -25 6z"/>
<path d="M7120 2939 c0 -5 5 -7 10 -4 6 3 10 8 10 11 0 2 -4 4 -10 4 -5 0 -10
-5 -10 -11z"/>
<path d="M5915 2920 c-16 -7 -17 -9 -3 -9 9 -1 20 4 23 9 7 11 7 11 -20 0z"/>
<path d="M6375 2898 c-211 -9 -276 -17 -282 -35 -7 -21 124 -26 450 -14 305
11 524 26 557 38 55 22 -358 28 -725 11z"/>
<path d="M5210 2890 c-13 -8 -12 -10 3 -10 9 0 17 5 17 10 0 12 -1 12 -20 0z"/>
<path d="M5775 2890 c-3 -5 1 -10 9 -10 9 0 16 5 16 10 0 6 -4 10 -9 10 -6 0
-13 -4 -16 -10z"/>
<path d="M7586 2882 c-12 -19 8 -35 34 -27 22 7 23 26 0 33 -7 3 -10 0 -6 -6
3 -6 2 -13 -3 -16 -5 -4 -11 2 -13 11 -3 14 -5 15 -12 5z"/>
<path d="M7140 2871 c0 -5 9 -7 20 -4 11 3 20 7 20 9 0 2 -9 4 -20 4 -11 0
-20 -4 -20 -9z"/>
<path d="M7120 2850 c0 -5 5 -10 11 -10 5 0 7 5 4 10 -3 6 -8 10 -11 10 -2 0
-4 -4 -4 -10z"/>
<path d="M7208 2853 c6 -2 9 -9 6 -14 -3 -6 -12 -5 -21 3 -15 12 -15 11 -2 -9
8 -13 17 -23 22 -23 4 0 6 4 3 9 -3 5 1 12 10 15 19 7 9 26 -14 25 -11 0 -12
-2 -4 -6z"/>
<path d="M5305 2838 c-282 -6 -644 -25 -682 -35 -13 -3 -23 -9 -23 -13 0 -16
57 -21 204 -16 83 3 246 8 361 11 196 6 482 28 493 40 6 6 -15 13 -53 17 -16
2 -151 0 -300 -4z"/>
<path d="M5927 2829 c7 -7 15 -10 18 -7 3 3 -2 9 -12 12 -14 6 -15 5 -6 -5z"/>
<path d="M7266 2805 c-9 -26 -7 -32 5 -12 6 10 9 21 6 23 -2 3 -7 -2 -11 -11z"/>
<path d="M6529 2805 c-1 -3 -3 -9 -4 -15 -1 -5 -3 -13 -4 -17 -1 -5 -5 -2 -10
5 -6 10 -10 6 -15 -14 -7 -28 12 -54 38 -54 6 0 4 5 -4 10 -13 8 -13 10 1 10
9 0 20 7 23 16 5 12 2 15 -11 10 -15 -6 -15 -5 1 13 10 11 15 25 11 30 -6 11
-24 15 -26 6z"/>
<path d="M7165 2790 c-3 -5 -1 -10 4 -10 6 0 11 5 11 10 0 6 -2 10 -4 10 -3 0
-8 -4 -11 -10z"/>
<path d="M7065 2780 c3 -5 8 -10 11 -10 2 0 4 5 4 10 0 6 -5 10 -11 10 -5 0
-7 -4 -4 -10z"/>
<path d="M5725 2770 c-3 -5 -1 -10 4 -10 6 0 11 5 11 10 0 6 -2 10 -4 10 -3 0
-8 -4 -11 -10z"/>
<path d="M7220 2769 c0 -5 5 -7 10 -4 6 3 10 8 10 11 0 2 -4 4 -10 4 -5 0 -10
-5 -10 -11z"/>
<path d="M5690 2755 c-11 -13 -10 -14 4 -9 9 3 16 10 16 15 0 13 -6 11 -20 -6z"/>
<path d="M6910 2729 c0 -5 5 -7 10 -4 6 3 10 8 10 11 0 2 -4 4 -10 4 -5 0 -10
-5 -10 -11z"/>
<path d="M6760 2719 c0 -5 5 -7 10 -4 6 3 10 8 10 11 0 2 -4 4 -10 4 -5 0 -10
-5 -10 -11z"/>
<path d="M7431 2714 c0 -11 3 -14 6 -6 3 7 2 16 -1 19 -3 4 -6 -2 -5 -13z"/>
<path d="M2140 5550 c0 -5 5 -10 10 -10 6 0 10 5 10 10 0 6 -4 10 -10 10 -5 0
-10 -4 -10 -10z"/>
<path d="M2175 5521 c0 -28 1 -29 28 -15 29 16 37 30 11 20 -10 -4 -21 0 -28
9 -9 13 -11 10 -11 -14z"/>
<path d="M2167 5469 c7 -7 15 -10 18 -7 3 3 -2 9 -12 12 -14 6 -15 5 -6 -5z"/>
<path d="M2315 5429 c-4 -6 1 -17 11 -24 15 -12 16 -16 5 -24 -9 -6 -10 -11
-2 -15 6 -4 11 -4 11 1 0 4 4 1 10 -7 15 -24 20 -6 8 28 -7 18 -18 32 -26 32
-7 0 -10 5 -7 10 3 6 4 10 1 10 -3 0 -8 -5 -11 -11z"/>
<path d="M2370 5400 c8 -5 20 -10 25 -10 6 0 3 5 -5 10 -8 5 -19 10 -25 10 -5
0 -3 -5 5 -10z"/>
<path d="M2512 5392 c-31 -5 -25 -36 7 -40 19 -3 22 0 18 13 -4 9 -3 14 3 10
6 -3 10 -2 10 4 0 14 -11 18 -38 13z"/>
<path d="M2160 5383 c0 -4 5 -15 10 -23 8 -13 10 -13 10 2 0 9 -4 20 -10 23
-5 3 -10 3 -10 -2z"/>
<path d="M2265 5380 c-11 -5 -15 -9 -10 -9 6 -1 3 -5 -4 -10 -12 -8 -10 -12
12 -22 15 -7 27 -18 27 -25 0 -22 32 -34 48 -17 8 7 11 17 7 21 -4 4 -10 2
-12 -5 -5 -15 -33 -5 -33 12 0 7 -10 15 -22 19 -18 4 -20 8 -10 18 10 10 15
10 22 -2 11 -18 22 -8 14 14 -7 18 -10 18 -39 6z"/>
<path d="M2140 5365 c0 -23 16 -52 25 -44 3 3 -1 19 -10 35 -12 23 -15 25 -15
9z"/>
<path d="M2207 5360 c10 -11 19 -20 21 -20 1 0 -2 9 -8 20 -6 11 -15 20 -20
20 -6 0 -2 -9 7 -20z"/>
<path d="M2200 5313 c0 -4 9 -14 21 -21 18 -12 20 -11 17 5 -3 17 -38 32 -38
16z"/>
<path d="M2185 5277 c-18 -14 -14 -37 8 -37 7 0 6 4 -3 10 -13 8 -12 11 5 24
11 9 17 16 14 16 -3 0 -13 -6 -24 -13z"/>
<path d="M2255 5240 c4 -7 2 -16 -6 -21 -11 -7 -10 -11 5 -22 15 -11 17 -17 7
-35 -8 -14 -8 -22 -1 -22 5 0 10 -7 10 -16 0 -14 3 -14 15 -4 13 11 15 7 15
-26 l-1 -39 -18 23 c-11 12 -24 22 -31 22 -6 0 -8 5 -5 10 3 6 2 10 -4 10 -5
0 -9 -9 -8 -19 0 -11 4 -18 8 -15 4 2 16 -7 27 -21 11 -13 22 -22 25 -18 12
11 16 -20 32 -237 24 -333 35 -439 50 -514 15 -69 21 -84 30 -74 3 3 -1 76
-10 164 -8 87 -19 242 -25 343 -6 101 -13 197 -16 215 -2 17 -9 67 -14 111
-16 147 -21 165 -41 165 -22 0 -23 -4 -8 -33 10 -18 9 -20 -2 -9 -7 7 -14 24
-15 39 0 15 -7 29 -14 31 -8 3 -10 0 -5 -8z m35 -90 c0 -5 -2 -10 -4 -10 -3 0
-8 5 -11 10 -3 6 -1 10 4 10 6 0 11 -4 11 -10z"/>
<path d="M2667 5223 c-4 -3 -7 -11 -7 -17 0 -6 5 -5 12 2 6 6 9 14 7 17 -3 3
-9 2 -12 -2z"/>
<path d="M2669 5154 c-13 -15 -18 -24 -10 -19 9 5 12 3 9 -6 -3 -8 2 -20 9
-28 8 -7 12 -20 9 -27 -3 -8 -1 -14 3 -14 5 0 11 -7 15 -15 3 -9 0 -15 -10
-15 -9 0 -12 5 -8 13 4 6 -1 5 -12 -4 -10 -9 -25 -14 -31 -12 -7 3 -13 0 -13
-5 0 -14 39 -46 47 -38 4 4 1 11 -7 16 -8 5 -11 12 -8 15 9 9 68 -27 62 -37
-3 -4 0 -8 6 -8 6 0 10 8 8 18 -2 9 -9 16 -15 15 -15 -3 -9 60 6 65 8 3 10 -6
6 -26 -6 -35 11 -53 40 -42 19 8 19 8 -5 18 -14 6 -19 11 -12 11 6 1 12 6 12
12 0 5 -4 7 -10 4 -6 -3 -7 1 -4 9 3 9 1 16 -5 16 -7 0 -11 6 -10 13 3 20 -12
47 -28 47 -10 0 -13 -7 -8 -22 6 -22 5 -22 -9 -4 -14 17 -14 20 1 31 11 8 13
17 6 29 -8 15 -12 14 -34 -10z m66 -54 c3 -5 1 -10 -4 -10 -6 0 -11 5 -11 10
0 6 2 10 4 10 3 0 8 -4 11 -10z"/>
<path d="M2640 5159 c0 -5 5 -7 10 -4 6 3 10 8 10 11 0 2 -4 4 -10 4 -5 0 -10
-5 -10 -11z"/>
<path d="M2406 5142 c-3 -6 1 -12 9 -16 19 -7 20 -26 2 -26 -9 0 -14 -13 -15
-35 -1 -35 -1 -35 23 -19 30 20 32 28 5 19 -31 -10 -20 17 15 37 27 16 28 17
8 18 -13 0 -22 5 -20 11 3 15 -19 23 -27 11z"/>
<path d="M2178 5118 c5 -5 16 -8 23 -6 8 3 3 7 -10 11 -17 4 -21 3 -13 -5z"/>
<path d="M2613 5110 c-31 -13 -29 -32 6 -53 34 -20 41 -21 41 -6 0 5 -4 7 -10
4 -5 -3 -10 -1 -10 4 0 6 -7 11 -15 11 -8 0 -15 4 -15 9 0 14 26 32 35 23 5
-4 5 -1 1 6 -4 6 -8 12 -9 11 -1 0 -12 -4 -24 -9z"/>
<path d="M2351 5083 c-1 -25 6 -28 29 -12 13 9 13 10 -2 5 -10 -3 -18 1 -21
12 -3 12 -5 11 -6 -5z"/>
<path d="M2370 5039 c0 -5 5 -7 10 -4 6 3 10 8 10 11 0 2 -4 4 -10 4 -5 0 -10
-5 -10 -11z"/>
<path d="M2444 5037 c-6 -7 -8 -19 -6 -27 4 -12 2 -13 -9 -2 -16 15 -29 16
-29 2 0 -5 7 -10 15 -10 8 0 15 -5 15 -12 0 -20 17 4 24 35 7 30 6 32 -10 14z"/>
<path d="M2180 5010 c0 -5 5 -10 11 -10 5 0 7 5 4 10 -3 6 -8 10 -11 10 -2 0
-4 -4 -4 -10z"/>
<path d="M2210 5009 c0 -5 5 -7 10 -4 6 3 10 8 10 11 0 2 -4 4 -10 4 -5 0 -10
-5 -10 -11z"/>
<path d="M2360 5001 c0 -5 5 -13 10 -16 6 -3 10 -2 10 4 0 5 -4 13 -10 16 -5
3 -10 2 -10 -4z"/>
<path d="M2283 4985 c0 -8 4 -15 9 -15 4 0 8 4 8 9 0 6 -4 12 -8 15 -5 3 -9
-1 -9 -9z"/>
<path d="M2594 4982 c-11 -10 -21 -25 -21 -35 0 -19 12 -23 22 -7 5 8 11 7 21
-1 13 -10 13 -14 0 -28 -14 -16 -12 -17 19 -13 20 2 38 8 41 13 3 5 14 4 26
-2 23 -13 38 -2 41 29 0 11 5 18 9 16 4 -3 5 -16 2 -30 -5 -19 -1 -26 17 -33
13 -5 20 -10 15 -10 -19 -2 18 -31 38 -30 l21 0 -21 9 c-12 4 -24 15 -27 24
-4 9 -14 16 -23 16 -8 0 -14 6 -11 13 2 6 10 11 17 9 10 -2 9 3 -2 20 -13 19
-25 23 -79 25 -59 1 -62 1 -39 -12 14 -8 33 -12 44 -8 11 3 16 1 12 -5 -3 -6
0 -13 6 -16 7 -3 2 -5 -12 -4 -14 2 -31 -1 -37 -5 -13 -8 -14 -7 -17 16 -1 6
-6 11 -12 10 -5 -1 -15 10 -21 24 -10 21 -10 24 3 19 9 -3 12 -1 9 4 -9 14
-17 12 -41 -8z"/>
<path d="M2216 4974 c-5 -14 -4 -15 9 -4 17 14 19 20 6 20 -5 0 -12 -7 -15
-16z"/>
<path d="M2787 4969 c4 -13 8 -18 11 -10 2 7 -1 18 -6 23 -8 8 -9 4 -5 -13z"/>
<path d="M2395 4961 c-3 -5 0 -13 6 -17 8 -4 9 -3 5 4 -4 7 -2 12 4 12 6 0 14
-10 19 -22 5 -15 10 -18 15 -9 9 14 -11 41 -30 41 -7 0 -15 -4 -19 -9z"/>
<path d="M2260 4934 c-13 -15 -6 -17 24 -5 17 6 17 8 3 14 -8 3 -21 -1 -27 -9z"/>
<path d="M2210 4930 c-9 -6 -10 -10 -3 -10 6 0 15 5 18 10 8 12 4 12 -15 0z"/>
<path d="M2495 4930 c-3 -5 -1 -18 4 -27 9 -15 10 -14 9 10 -3 30 -4 32 -13
17z"/>
<path d="M2527 4933 c-13 -12 -7 -25 8 -19 8 3 15 1 15 -5 0 -6 5 -7 10 -4 8
5 7 11 -1 21 -13 15 -22 18 -32 7z"/>
<path d="M2460 4920 c0 -5 5 -10 10 -10 6 0 10 5 10 10 0 6 -4 10 -10 10 -5 0
-10 -4 -10 -10z"/>
<path d="M2806 4914 c-5 -14 -4 -15 9 -4 17 14 19 20 6 20 -5 0 -12 -7 -15
-16z"/>
<path d="M2425 4884 c-11 -8 -19 -22 -17 -29 2 -10 -3 -13 -13 -9 -8 3 -15 1
-15 -5 0 -6 5 -11 10 -11 6 0 10 -7 10 -15 0 -19 19 -19 58 1 33 16 40 28 22
39 -5 3 -10 2 -10 -2 0 -5 -11 -10 -25 -11 -29 -2 -31 5 -9 36 18 26 16 27
-11 6z"/>
<path d="M2675 4889 c-4 -6 -5 -12 -2 -15 2 -3 7 2 10 11 7 17 1 20 -8 4z"/>
<path d="M2705 4879 c-11 -17 1 -21 15 -4 8 9 8 15 2 15 -6 0 -14 -5 -17 -11z"/>
<path d="M2570 4871 c0 -10 19 -25 25 -20 1 2 -3 10 -11 17 -8 7 -14 8 -14 3z"/>
<path d="M2505 4850 c3 -5 11 -10 16 -10 6 0 7 5 4 10 -3 6 -11 10 -16 10 -6
0 -7 -4 -4 -10z"/>
<path d="M2768 4847 c8 -9 11 -21 7 -27 -3 -5 -1 -10 5 -10 17 0 8 43 -10 48
-13 5 -13 3 -2 -11z"/>
<path d="M2555 4840 c3 -5 8 -10 11 -10 2 0 4 5 4 10 0 6 -5 10 -11 10 -5 0
-7 -4 -4 -10z"/>
<path d="M2720 4840 c-13 -8 -12 -10 4 -10 11 0 16 -5 13 -14 -4 -10 5 -18 26
-25 l31 -11 -27 28 c-15 16 -24 31 -20 35 10 10 -10 8 -27 -3z"/>
<path d="M2633 4833 c4 -3 1 -13 -6 -22 -11 -14 -10 -14 6 -2 9 7 17 9 17 4 0
-6 12 -8 26 -5 22 4 24 6 10 14 -9 5 -21 6 -26 3 -6 -3 -10 -1 -10 4 0 6 -5
11 -12 11 -6 0 -8 -3 -5 -7z"/>
<path d="M2837 4827 c-3 -8 -1 -20 4 -28 6 -10 9 -7 9 14 0 29 -5 35 -13 14z"/>
<path d="M2585 4820 c-3 -5 -2 -10 4 -10 5 0 13 5 16 10 3 6 2 10 -4 10 -5 0
-13 -4 -16 -10z"/>
<path d="M2442 4790 c-9 -14 -8 -21 4 -31 12 -10 13 -9 8 6 -4 9 -2 20 6 25 6
4 8 10 3 13 -5 3 -14 -3 -21 -13z"/>
<path d="M2800 4794 c0 -11 -17 -34 -37 -53 -28 -25 -31 -30 -10 -17 21 13 32
14 48 6 20 -11 20 -12 2 -25 -17 -13 -16 -14 6 -8 14 4 27 1 33 -8 7 -10 8 -8
3 9 -7 23 9 32 18 10 3 -8 6 -6 6 5 1 12 -7 17 -28 17 -16 0 -34 7 -42 16 -11
13 -9 14 14 9 17 -5 27 -3 27 4 0 6 -3 10 -7 10 -19 -3 -27 2 -15 10 10 6 10
10 -3 21 -13 10 -15 9 -15 -6z"/>
<path d="M2506 4785 c-3 -8 -1 -15 3 -15 5 0 11 7 15 15 3 8 1 15 -3 15 -5 0
-11 -7 -15 -15z"/>
<path d="M2641 4774 c0 -11 3 -14 6 -6 3 7 2 16 -1 19 -3 4 -6 -2 -5 -13z"/>
<path d="M2615 4770 c-3 -5 -1 -18 4 -27 9 -15 10 -14 9 10 -3 30 -4 32 -13
17z"/>
<path d="M2862 4766 c7 -8 15 -12 17 -11 5 6 -10 25 -20 25 -5 0 -4 -6 3 -14z"/>
<path d="M2410 4756 c0 -8 7 -17 16 -20 25 -9 26 -2 4 17 -16 13 -20 14 -20 3z"/>
<path d="M2460 4730 c0 -5 4 -10 9 -10 6 0 13 5 16 10 3 6 -1 10 -9 10 -9 0
-16 -4 -16 -10z"/>
<path d="M2513 4720 c1 -20 27 -29 27 -10 0 6 -5 10 -11 10 -5 0 -7 5 -4 10 3
6 2 10 -4 10 -5 0 -9 -9 -8 -20z"/>
<path d="M2560 4730 c-9 -6 -10 -10 -3 -10 6 0 15 5 18 10 8 12 4 12 -15 0z"/>
<path d="M2603 4694 c-12 -13 -17 -24 -11 -24 6 0 16 7 22 15 6 9 24 18 41 21
42 7 44 14 4 13 -22 -1 -42 -9 -56 -25z"/>
<path d="M2543 4681 c-10 -16 -9 -18 6 -14 10 2 18 11 18 19 0 19 -10 18 -24
-5z"/>
<path d="M2875 4690 c-3 -5 -1 -10 4 -10 6 0 11 5 11 10 0 6 -2 10 -4 10 -3 0
-8 -4 -11 -10z"/>
<path d="M2803 4672 c-13 -2 -23 -10 -23 -18 0 -19 -10 -18 -26 4 -13 16 -15
16 -29 -2 -32 -42 -10 -129 100 -385 34 -80 77 -184 95 -231 37 -96 168 -406
195 -462 24 -49 34 -40 24 19 -9 58 -72 263 -98 318 -68 147 -145 368 -138
395 3 11 1 18 -3 15 -8 -5 -54 105 -92 223 -17 54 -18 68 -8 88 7 12 20 25 29
26 24 5 -1 15 -26 10z m-66 -34 c-3 -8 -6 -5 -6 6 -1 11 2 17 5 13 3 -3 4 -12
1 -19z"/>
<path d="M2870 4660 c-9 -6 -10 -10 -3 -10 6 0 15 5 18 10 8 12 4 12 -15 0z"/>
<path d="M2530 4640 c0 -5 5 -10 10 -10 6 0 10 5 10 10 0 6 -4 10 -10 10 -5 0
-10 -4 -10 -10z"/>
<path d="M2820 4640 c0 -5 7 -10 15 -10 8 0 15 5 15 10 0 6 -7 10 -15 10 -8 0
-15 -4 -15 -10z"/>
<path d="M2906 4595 c-9 -26 -7 -32 5 -12 6 10 9 21 6 23 -2 3 -7 -2 -11 -11z"/>
<path d="M2835 4570 c3 -5 14 -10 23 -10 15 0 15 2 2 10 -20 13 -33 13 -25 0z"/>
<path d="M2959 4551 c8 -5 10 -14 6 -22 -6 -11 -5 -11 5 -2 14 12 6 33 -13 33
-8 0 -7 -3 2 -9z"/>
<path d="M2967 4479 c7 -7 15 -10 18 -7 3 3 -2 9 -12 12 -14 6 -15 5 -6 -5z"/>
<path d="M2610 4465 c0 -18 19 -40 26 -32 4 4 0 15 -9 24 -9 10 -17 13 -17 8z"/>
<path d="M3000 4440 c0 -5 5 -10 10 -10 6 0 10 5 10 10 0 6 -4 10 -10 10 -5 0
-10 -4 -10 -10z"/>
<path d="M2930 4425 c0 -9 6 -12 15 -9 8 4 15 7 15 9 0 2 -7 5 -15 9 -9 3 -15
0 -15 -9z"/>
<path d="M2965 4390 c3 -5 8 -10 11 -10 2 0 4 5 4 10 0 6 -5 10 -11 10 -5 0
-7 -4 -4 -10z"/>
<path d="M2901 4381 c-9 -6 -6 -8 13 -8 14 0 23 3 20 8 -7 11 -15 11 -33 0z"/>
<path d="M2930 4350 c-12 -8 -11 -10 8 -10 12 0 22 5 22 10 0 13 -11 13 -30 0z"/>
<path d="M2960 4199 c0 -5 -4 -7 -10 -4 -5 3 -1 -13 9 -37 10 -24 16 -49 14
-55 -3 -7 0 -13 6 -13 6 0 10 11 9 25 -1 14 -6 25 -10 25 -10 0 -10 27 0 33 4
2 1 2 -6 0 -9 -2 -11 3 -7 17 4 11 4 20 1 20 -3 0 -6 -5 -6 -11z"/>
<path d="M2995 4160 c-3 -5 -1 -10 4 -10 6 0 11 5 11 10 0 6 -2 10 -4 10 -3 0
-8 -4 -11 -10z"/>
<path d="M2624 4116 c-10 -8 -16 -18 -11 -22 4 -4 7 -2 7 4 0 6 6 9 14 6 7 -3
16 2 19 10 8 20 -3 20 -29 2z"/>
<path d="M2460 4073 c0 -5 4 -13 8 -20 6 -9 11 -7 20 7 11 17 10 20 -8 20 -11
0 -20 -3 -20 -7z"/>
<path d="M3028 4033 c7 -3 16 -2 19 1 4 3 -2 6 -13 5 -11 0 -14 -3 -6 -6z"/>
<path d="M2915 3980 c3 -5 8 -10 11 -10 2 0 4 5 4 10 0 6 -5 10 -11 10 -5 0
-7 -4 -4 -10z"/>
<path d="M2875 3900 c3 -5 11 -10 16 -10 6 0 7 5 4 10 -3 6 -11 10 -16 10 -6
0 -7 -4 -4 -10z"/>
<path d="M2955 3890 c3 -5 8 -10 11 -10 2 0 4 5 4 10 0 6 -5 10 -11 10 -5 0
-7 -4 -4 -10z"/>
<path d="M3196 3828 c3 -4 0 -8 -6 -8 -6 0 -8 -5 -5 -10 5 -8 11 -8 19 -1 9 7
16 7 23 0 7 -7 12 -5 15 8 4 14 -1 18 -23 18 -15 1 -25 -3 -23 -7z"/>
<path d="M3210 3787 c0 -5 -4 -6 -9 -3 -5 3 -12 -1 -15 -10 -9 -25 -7 -27 10
-9 9 9 23 15 32 13 20 -4 26 -47 7 -54 -8 -4 -15 -11 -15 -17 0 -7 4 -7 12 1
9 9 16 8 30 -5 14 -13 20 -13 33 -3 18 15 20 4 3 -13 -21 -20 -48 -20 -49 0 0
10 -3 13 -5 7 -3 -7 -13 -10 -24 -7 -13 3 -17 12 -14 27 2 15 -1 23 -11 23
-10 0 -11 -5 -5 -17 5 -10 7 -20 4 -23 -3 -3 4 -10 15 -17 12 -6 18 -16 15
-22 -4 -7 -2 -8 5 -4 6 4 23 0 36 -8 14 -9 25 -12 25 -6 0 5 10 10 22 10 20 0
20 -1 5 -12 -12 -9 -14 -17 -7 -28 5 -8 12 -11 17 -7 4 5 2 12 -6 16 -10 6 -8
10 6 15 16 7 16 9 -7 28 -16 13 -19 18 -7 14 9 -3 17 -4 17 -3 0 1 -9 27 -20
57 -11 30 -20 56 -20 58 0 2 -5 0 -11 -4 -7 -4 -7 -10 -1 -16 6 -6 8 -17 5
-26 -4 -10 -2 -13 5 -8 12 7 17 -6 6 -17 -15 -14 -30 7 -30 41 1 34 -1 37 -26
37 -16 0 -28 -4 -28 -8z"/>
<path d="M3216 3762 c-2 -4 -1 -14 5 -22 7 -12 9 -10 9 8 0 23 -5 28 -14 14z"/>
<path d="M3017 3689 c7 -7 15 -10 18 -7 3 3 -2 9 -12 12 -14 6 -15 5 -6 -5z"/>
<path d="M2490 3660 c0 -29 46 -146 85 -215 38 -67 108 -141 124 -131 23 15 9
59 -53 160 -111 183 -156 237 -156 186z"/>
<path d="M3149 3653 c-18 -21 10 -25 36 -5 l25 20 -26 -2 c-14 0 -30 -6 -35
-13z"/>
<path d="M2870 3630 c0 -5 5 -10 10 -10 6 0 10 5 10 10 0 6 -4 10 -10 10 -5 0
-10 -4 -10 -10z"/>
<path d="M3250 3636 c0 -2 7 -9 15 -16 13 -11 14 -10 9 4 -5 14 -24 23 -24 12z"/>
<path d="M2840 3610 c-12 -8 -9 -10 13 -10 16 0 26 4 22 10 -8 12 -16 12 -35
0z"/>
<path d="M3195 3610 c-3 -6 1 -7 9 -4 18 7 21 14 7 14 -6 0 -13 -4 -16 -10z"/>
<path d="M3216 3585 c5 -12 61 -17 69 -6 3 5 -13 11 -34 13 -23 2 -37 -1 -35
-7z"/>
<path d="M3180 3576 c0 -2 7 -7 16 -10 8 -3 12 -2 9 4 -6 10 -25 14 -25 6z"/>
<path d="M3343 3569 c-9 -9 -8 -18 4 -35 9 -14 11 -24 5 -24 -6 0 -13 4 -17
10 -3 5 -19 1 -37 -10 -17 -10 -38 -16 -47 -13 -10 3 -8 0 4 -8 19 -13 19 -13
-5 -20 -23 -7 -22 -7 7 -6 18 1 29 6 26 12 -2 5 5 -1 16 -15 18 -21 22 -23 31
-10 12 19 12 22 -1 40 -8 12 -9 10 -4 -7 3 -13 2 -23 -3 -23 -14 0 -21 25 -12
41 7 11 15 10 44 -4 20 -9 36 -12 36 -7 0 6 -5 10 -11 10 -6 0 -9 9 -6 20 3
11 1 17 -4 14 -6 -3 -7 5 -3 20 6 27 -4 34 -23 15z"/>
<path d="M3160 3566 c0 -2 8 -10 18 -17 15 -13 16 -12 3 4 -13 16 -21 21 -21
13z"/>
<path d="M3255 3539 c-22 -11 -33 -17 -24 -15 9 2 20 1 25 -3 5 -4 20 3 33 16
29 28 20 28 -34 2z"/>
<path d="M3337 3433 c-4 -3 -7 -15 -7 -25 0 -10 -7 -18 -15 -18 -8 0 -15 -7
-15 -15 0 -8 5 -15 11 -15 5 0 7 -6 3 -12 -5 -10 -3 -10 7 0 12 11 12 14 -1
22 -13 8 -13 10 1 10 9 0 23 8 30 17 12 14 12 15 0 9 -10 -7 -12 -3 -6 13 6
21 4 26 -8 14z"/>
<path d="M3255 3420 c-3 -5 -1 -10 4 -10 6 0 11 5 11 10 0 6 -2 10 -4 10 -3 0
-8 -4 -11 -10z"/>
<path d="M3400 3411 c0 -5 11 -16 25 -25 14 -9 25 -15 25 -13 0 2 -11 13 -25
25 -14 12 -25 18 -25 13z"/>
<path d="M3370 3370 c0 -11 5 -20 10 -20 6 0 10 -5 10 -11 0 -6 -7 -9 -15 -5
-22 8 -18 -2 5 -14 11 -6 20 -7 19 -3 -3 20 2 34 11 28 6 -3 10 0 10 8 0 10
-7 14 -22 10 -17 -3 -19 -2 -10 5 11 7 11 10 -2 15 -11 5 -16 1 -16 -13z"/>
<path d="M3227 3363 c-3 -5 1 -14 8 -20 11 -10 13 -9 12 7 -1 20 -12 26 -20
13z"/>
<path d="M3262 3348 c3 -7 13 -15 23 -17 17 -3 17 -2 3 13 -20 19 -31 21 -26
4z"/>
<path d="M3440 3350 c-9 -6 -10 -10 -3 -10 6 0 15 5 18 10 8 12 4 12 -15 0z"/>
<path d="M3451 3323 c0 -6 -11 -9 -23 -6 -22 4 -23 4 -4 -11 11 -9 24 -16 29
-16 5 0 4 -7 -3 -15 -16 -19 -1 -19 24 0 17 13 17 15 4 15 -9 0 -19 10 -21 23
-2 12 -5 17 -6 10z"/>
<path d="M3291 3294 c0 -11 3 -14 6 -6 3 7 2 16 -1 19 -3 4 -6 -2 -5 -13z"/>
<path d="M3379 3291 c-1 -6 -2 -17 -3 -23 0 -7 -10 -13 -21 -13 -12 0 -21 -8
-23 -19 -5 -22 -27 -47 -36 -41 -3 3 -2 0 3 -6 7 -8 16 -7 32 4 30 21 72 94
59 102 -5 3 -11 1 -11 -4z"/>
<path d="M2910 3241 c0 -5 9 -7 20 -4 11 3 20 7 20 9 0 2 -9 4 -20 4 -11 0
-20 -4 -20 -9z"/>
<path d="M3445 3241 c-3 -5 1 -15 8 -23 8 -7 12 -19 9 -26 -2 -6 1 -12 7 -12
17 0 13 40 -4 46 -8 4 -12 10 -9 15 3 5 3 9 0 9 -3 0 -7 -4 -11 -9z"/>
<path d="M3490 3230 c0 -5 5 -10 10 -10 6 0 10 5 10 10 0 6 -4 10 -10 10 -5 0
-10 -4 -10 -10z"/>
<path d="M3367 3213 c-4 -3 -7 -13 -7 -22 1 -13 3 -13 11 2 11 19 8 33 -4 20z"/>
<path d="M3401 3204 c9 -11 7 -14 -7 -15 -11 0 -14 -3 -6 -6 6 -2 12 -11 12
-18 0 -7 7 -16 16 -19 26 -10 30 -6 10 9 -19 15 -19 15 1 15 28 0 36 -25 15
-47 -16 -16 -16 -16 5 -11 13 3 25 2 28 -2 3 -5 -3 -11 -12 -13 -13 -3 -10 -5
7 -6 20 -1 22 -3 10 -11 -13 -9 -13 -12 2 -20 16 -10 17 -27 3 -61 -4 -12 2
-19 23 -27 25 -9 29 -15 26 -39 -2 -21 1 -30 11 -30 8 0 15 3 15 6 0 4 11 18
24 33 14 14 22 29 18 33 -4 4 -8 11 -8 16 -1 5 -3 11 -4 14 -3 6 -5 11 -15 42
-6 17 -13 21 -41 18 -29 -3 -34 0 -33 18 0 12 3 16 6 10 2 -7 16 -13 30 -13
19 0 24 4 19 16 -3 9 -6 22 -6 30 0 16 -31 19 -46 4 -5 -5 -15 -5 -23 -1 -9 6
-2 11 23 15 40 8 43 12 20 44 -16 23 -34 29 -34 12 0 -5 7 -10 16 -10 9 0 14
-6 11 -12 -4 -14 -28 -15 -69 -4 -26 8 -33 24 -14 37 4 4 -4 7 -18 7 -21 0
-24 -3 -15 -14z m135 -94 c0 -11 -4 -20 -8 -20 -4 0 -8 9 -8 20 0 11 4 20 8
20 4 0 8 -9 8 -20z m17 -80 c-4 -14 0 -20 10 -20 9 0 19 -5 23 -11 4 -8 0 -9
-15 -4 -12 4 -21 2 -21 -4 0 -14 -31 -14 -50 0 -12 8 -9 10 13 6 15 -2 30 0
33 4 3 5 -6 9 -20 9 -19 0 -24 4 -19 16 4 12 7 13 14 3 6 -11 9 -10 15 4 9 24
23 21 17 -3z m25 -70 c-7 -11 -19 -20 -26 -20 -10 0 -10 5 -2 20 6 11 17 20
25 20 13 0 13 -3 3 -20z"/>
<path d="M3316 3112 l-19 -27 24 22 c12 12 21 24 18 27 -2 2 -13 -8 -23 -22z"/>
<path d="M3374 3122 c0 -14 6 -17 23 -14 13 2 23 9 23 14 0 6 -7 8 -15 4 -8
-3 -15 -1 -15 4 0 6 -4 10 -8 10 -4 0 -8 -8 -8 -18z"/>
<path d="M2587 3119 c7 -7 15 -10 18 -7 3 3 -2 9 -12 12 -14 6 -15 5 -6 -5z"/>
<path d="M3380 3085 c-8 -9 -8 -15 -2 -15 6 0 13 6 15 13 4 9 6 9 6 -1 1 -7 6
-10 13 -6 7 5 9 2 5 -8 -9 -25 14 -41 29 -20 8 9 14 21 14 26 0 6 -6 2 -13 -9
-13 -17 -14 -17 -13 5 1 27 -35 37 -54 15z"/>
<path d="M3200 3075 c7 -9 15 -13 17 -11 7 7 -7 26 -19 26 -6 0 -6 -6 2 -15z"/>
<path d="M3321 3085 c1 -19 18 -51 18 -35 0 8 -4 22 -9 30 -5 8 -9 11 -9 5z"/>
<path d="M3451 3021 c-10 -6 -10 -10 -1 -16 13 -8 24 -1 19 14 -3 6 -10 7 -18
2z"/>
<path d="M3314 2984 c3 -9 6 -18 6 -20 0 -2 5 -4 11 -4 8 0 9 4 0 13 -6 8 -8
17 -4 20 3 4 1 7 -6 7 -8 0 -11 -6 -7 -16z"/>
<path d="M3465 2966 c17 -13 32 -23 33 -21 6 6 -38 45 -50 45 -7 0 1 -11 17
-24z"/>
<path d="M3357 2959 c7 -7 15 -10 18 -7 3 3 -2 9 -12 12 -14 6 -15 5 -6 -5z"/>
<path d="M2990 2950 c0 -5 5 -10 11 -10 5 0 7 5 4 10 -3 6 -8 10 -11 10 -2 0
-4 -4 -4 -10z"/>
<path d="M3592 2934 c-11 -12 -11 -22 1 -57 11 -32 16 -38 22 -25 4 11 1 24
-9 34 -16 16 -13 34 5 34 6 0 8 -4 4 -9 -3 -5 -2 -12 3 -15 13 -8 12 32 -1 42
-8 7 -16 5 -25 -4z"/>
<path d="M3486 2922 c-2 -4 4 -8 14 -8 10 0 16 4 14 8 -3 4 -9 8 -14 8 -5 0
-11 -4 -14 -8z"/>
<path d="M3466 2893 c19 -19 46 -24 42 -8 -2 6 -8 10 -15 10 -6 0 -15 4 -19 8
-4 4 -11 7 -16 7 -5 0 -2 -8 8 -17z"/>
<path d="M3202 2887 c-7 -8 -8 -18 -4 -22 4 -5 0 -6 -8 -3 -24 9 -41 -16 -26
-37 13 -18 42 -12 31 5 -3 5 2 21 11 35 18 27 14 45 -4 22z"/>
<path d="M3555 2880 c-3 -5 -2 -10 4 -10 5 0 13 5 16 10 3 6 2 10 -4 10 -5 0
-13 -4 -16 -10z"/>
<path d="M3118 2863 c7 -3 16 -2 19 1 4 3 -2 6 -13 5 -11 0 -14 -3 -6 -6z"/>
<path d="M3575 2860 c-3 -5 -1 -10 4 -10 6 0 11 5 11 10 0 6 -2 10 -4 10 -3 0
-8 -4 -11 -10z"/>
<path d="M3467 2849 c8 -8 16 -8 30 0 16 9 14 10 -11 11 -22 0 -27 -3 -19 -11z"/>
<path d="M3530 2850 c0 -5 7 -7 15 -4 8 4 15 8 15 10 0 2 -7 4 -15 4 -8 0 -15
-4 -15 -10z"/>
<path d="M3633 2853 c-18 -7 -16 -23 2 -23 8 0 15 7 15 15 0 8 -1 15 -2 14 -2
0 -9 -3 -15 -6z"/>
<path d="M3567 2833 c-4 -3 -7 -11 -7 -17 0 -6 5 -4 10 4 6 9 10 10 10 3 0 -6
3 -20 7 -30 6 -16 5 -16 -10 -4 -9 7 -17 9 -17 3 0 -5 8 -13 18 -18 27 -12 62
-11 62 2 0 7 -9 10 -22 8 l-23 -5 23 12 c19 10 25 9 37 -7 11 -15 14 -16 15
-4 0 20 -42 48 -48 31 -2 -6 -8 -11 -13 -11 -6 0 -7 5 -3 12 4 7 3 8 -4 4 -7
-4 -12 -1 -12 8 0 17 -12 21 -23 9z"/>
<path d="M3515 2810 c3 -5 8 -10 11 -10 2 0 4 5 4 10 0 6 -5 10 -11 10 -5 0
-7 -4 -4 -10z"/>
<path d="M2898 2773 c-5 -43 13 -73 43 -73 25 0 49 16 49 33 0 12 -62 67 -77
67 -6 0 -13 -12 -15 -27z"/>
<path d="M3661 2647 c-8 -10 -7 -14 4 -14 8 0 15 6 15 14 0 7 -2 13 -4 13 -2
0 -9 -6 -15 -13z"/>
<path d="M3670 2610 c0 -5 5 -10 10 -10 6 0 10 5 10 10 0 6 -4 10 -10 10 -5 0
-10 -4 -10 -10z"/>
<path d="M2538 5213 c6 -2 10 -9 6 -14 -3 -5 6 -9 20 -9 14 0 26 5 26 11 0 5
-4 7 -10 4 -5 -3 -10 -1 -10 4 0 6 -10 11 -22 10 -13 0 -17 -3 -10 -6z"/>
<path d="M8639 8473 c-367 -235 -443 -294 -437 -336 5 -36 58 -34 122 2 162
93 374 268 425 351 43 71 21 67 -110 -17z"/>
<path d="M8751 7790 c-257 -66 -411 -137 -411 -190 0 -43 43 -49 180 -25 233
41 470 145 470 207 0 46 -79 49 -239 8z"/>
<path d="M8406 7031 c-33 -37 18 -89 148 -150 134 -64 231 -76 277 -35 24 21
24 56 2 77 -40 34 -319 127 -386 127 -13 0 -32 -9 -41 -19z"/>
<path d="M537 5122 c-39 -43 -51 -102 -51 -247 0 -185 23 -317 96 -545 56
-177 197 -447 296 -568 59 -72 152 -104 152 -53 0 10 -20 55 -45 102 -272 506
-375 816 -392 1174 -7 151 -18 179 -56 137z"/>
<path d="M1401 2521 c-17 -31 -13 -67 19 -200 41 -167 115 -362 215 -566 125
-253 232 -403 331 -461 46 -27 87 -29 92 -4 1 9 -31 68 -72 132 -156 241 -304
543 -430 878 -36 94 -73 185 -83 203 -23 38 -57 47 -72 18z"/>
<path d="M1003 2194 c-19 -51 62 -324 153 -514 58 -120 172 -299 246 -386 115
-134 257 -214 266 -149 3 24 -23 64 -139 217 -144 188 -218 311 -354 583 -128
255 -154 294 -172 249z"/>
<path d="M4902 1978 c-6 -7 -26 -72 -46 -145 -79 -292 -134 -412 -291 -636
-30 -43 -55 -87 -55 -97 0 -24 36 -35 84 -26 137 26 312 314 361 594 20 115
20 271 -1 300 -17 25 -36 28 -52 10z"/>
<path d="M5291 1654 c-12 -15 -21 -31 -21 -36 0 -5 -45 -100 -100 -210 -55
-110 -100 -213 -100 -228 0 -90 104 -43 184 84 42 64 91 206 101 288 5 44 2
66 -10 93 -21 42 -27 43 -54 9z"/>
</g>
</svg>
